<svg width="18" height="14" viewBox="0 0 18 14" fill="none" xmlns="http://www.w3.org/2000/svg">
<path fill-rule="evenodd" clip-rule="evenodd" d="M1.45532 0.842715L6.85844 6.24818C8.03688 7.42436 9.96321 7.42537 11.1426 6.24818L16.5457 0.842715C16.6002 0.788301 16.5922 0.698692 16.5291 0.654668C15.978 0.270332 15.3075 0.0424805 14.5852 0.0424805H3.41587C2.69356 0.0424805 2.02305 0.270371 1.47196 0.654668C1.40884 0.698692 1.40091 0.788301 1.45532 0.842715ZM0.0114136 3.44689C0.0114136 2.87893 0.152234 2.34229 0.400281 1.87061C0.43907 1.79682 0.53739 1.78189 0.596335 1.84084L5.93106 7.17557C7.6204 8.86736 10.3797 8.86834 12.07 7.17557L17.4048 1.84084C17.4637 1.78189 17.562 1.79682 17.6008 1.87061C17.8488 2.34229 17.9897 2.87897 17.9897 3.44689V10.5538C17.9897 12.4324 16.4615 13.9583 14.5852 13.9583H3.41587C1.53962 13.9583 0.0114136 12.4324 0.0114136 10.5538V3.44689Z" fill="black"/>
</svg>
