<svg width="18" height="12" viewBox="0 0 18 12" fill="none" xmlns="http://www.w3.org/2000/svg">
<path d="M4.21183 9.52534C7.93644 10.9789 11.1061 11.262 14.698 8.99952C14.6716 9.03901 13.9611 10.0916 12.0927 10.6311C12.4874 11.1706 13.0269 11.789 13.0269 11.789C14.2243 11.789 15.3954 11.4469 16.4085 10.789C17.198 10.2626 17.6453 9.35476 17.5532 8.40741C17.3953 6.78898 17.0137 5.21003 16.4216 3.6969C15.6716 1.72323 13.869 0.354795 11.7769 0.157412C11.5927 0.144248 11.4611 0.144248 11.3822 0.144248L11.1717 0.354756C13.5796 1.03897 14.777 2.10476 14.8032 2.14425C11.1059 0.27581 6.73746 0.249521 3.01375 2.0653C3.01375 2.0653 4.19796 0.894248 6.81636 0.275811L6.65847 0.11792C6.38214 0.11792 6.11898 0.144248 5.84269 0.183701C3.90847 0.512646 2.29007 1.84159 1.59269 3.67054C0.987417 5.24948 0.59269 6.90737 0.447964 8.59159C0.369018 9.48632 0.790073 10.3679 1.52691 10.8811C2.50058 11.5258 3.65847 11.8679 4.82953 11.8679C4.82953 11.8679 5.3032 11.2495 5.77691 10.6969C4.00058 10.1705 3.27691 9.11792 3.26375 9.07843L3.59804 9.24913C3.79789 9.35124 4.00277 9.44374 4.21183 9.52534ZM6.27691 8.38108C5.42164 8.35476 4.75058 7.63108 4.77691 6.76265C4.80324 5.94687 5.46113 5.28898 6.27691 5.26265C7.13218 5.28898 7.80324 6.01265 7.77691 6.88108C7.73742 7.6969 7.09269 8.3548 6.27691 8.38108ZM11.6453 8.38108C10.79 8.35476 10.119 7.63108 10.1453 6.76265C10.1716 5.94687 10.8295 5.28898 11.6453 5.26265C12.5006 5.28898 13.1716 6.01265 13.1453 6.88108C13.119 7.6969 12.4611 8.3548 11.6453 8.38108Z" fill="black"/>
</svg>
