<svg width="107" height="36" viewBox="0 0 107 36" fill="none" xmlns="http://www.w3.org/2000/svg">
<path fill-rule="evenodd" clip-rule="evenodd" d="M39.1468 7.33603H18.9132C18.7885 7.33603 18.6688 7.38556 18.5806 7.47386C18.4923 7.56206 18.4427 7.68173 18.4427 7.80661V28.0401C18.4427 28.1649 18.4923 28.2846 18.5806 28.3728C18.6688 28.461 18.7885 28.5106 18.9132 28.5106H39.1468C39.2716 28.5106 39.3913 28.461 39.4795 28.3728C39.5678 28.2846 39.6173 28.1649 39.6173 28.0401V7.80661C39.6173 7.68173 39.5678 7.56206 39.4795 7.47386C39.3913 7.38556 39.2716 7.33603 39.1468 7.33603ZM32.5591 20.9819C32.5591 21.1067 32.5096 21.2263 32.4213 21.3146C32.3331 21.4028 32.2134 21.4525 32.0886 21.4525H25.9715C25.8467 21.4525 25.727 21.4028 25.6387 21.3146C25.5505 21.2263 25.501 21.1067 25.501 20.9819V14.8647C25.501 14.7399 25.5505 14.6203 25.6387 14.5321C25.727 14.4438 25.8467 14.3942 25.9715 14.3942H32.0886C32.2134 14.3942 32.3331 14.4438 32.4213 14.5321C32.5096 14.6203 32.5591 14.7399 32.5591 14.8647V20.9819Z" fill="white"/>
<path d="M81.5074 14.3951H75.3903C75.1305 14.3951 74.9198 14.6057 74.9198 14.8655V20.9827C74.9198 21.2426 75.1305 21.4533 75.3903 21.4533H81.5074C81.7673 21.4533 81.978 21.2426 81.978 20.9827V14.8655C81.978 14.6057 81.7673 14.3951 81.5074 14.3951Z" fill="white"/>
<path d="M68.3292 7.33655H74.4463C74.7063 7.33655 74.9169 7.54716 74.9169 7.80712V13.9242C74.9169 14.184 74.7063 14.3948 74.4463 14.3948H68.3292C68.0694 14.3948 67.8587 14.184 67.8587 13.9242V7.80712C67.8587 7.54716 68.0694 7.33655 68.3292 7.33655Z" fill="white"/>
<path d="M88.5631 7.33655H82.4459C82.186 7.33655 81.9753 7.54716 81.9753 7.80712V13.9242C81.9753 14.184 82.186 14.3948 82.4459 14.3948H88.5631C88.8229 14.3948 89.0336 14.184 89.0336 13.9242V7.80712C89.0336 7.54716 88.8229 7.33655 88.5631 7.33655Z" fill="white"/>
<path d="M68.3292 21.4529H74.4463C74.7063 21.4529 74.9169 21.6635 74.9169 21.9234V28.0405C74.9169 28.3004 74.7063 28.5111 74.4463 28.5111H68.3292C68.0694 28.5111 67.8587 28.3004 67.8587 28.0405V21.9234C67.8587 21.6635 68.0694 21.4529 68.3292 21.4529Z" fill="white"/>
<path d="M88.5631 21.4529H82.4459C82.186 21.4529 81.9753 21.6635 81.9753 21.9234V28.0405C81.9753 28.3004 82.186 28.5111 82.4459 28.5111H88.5631C88.8229 28.5111 89.0336 28.3004 89.0336 28.0405V21.9234C89.0336 21.6635 88.8229 21.4529 88.5631 21.4529Z" fill="white"/>
<path d="M57.7335 7.33655H63.8505C64.1104 7.33655 64.3211 7.54716 64.3211 7.80712V13.9242C64.3211 14.184 64.1104 14.3948 63.8505 14.3948H57.7335C57.4736 14.3948 57.2629 14.184 57.2629 13.9242V7.80712C57.2629 7.54716 57.4736 7.33655 57.7335 7.33655Z" fill="white"/>
<path d="M63.8505 21.4529H57.7335C57.4736 21.4529 57.2629 21.6635 57.2629 21.9234V28.0405C57.2629 28.3004 57.4736 28.5111 57.7335 28.5111H63.8505C64.1104 28.5111 64.3211 28.3004 64.3211 28.0405V21.9234C64.3211 21.6635 64.1104 21.4529 63.8505 21.4529Z" fill="white"/>
<path d="M57.1249 14.5268C57.213 14.615 57.2627 14.7347 57.2627 14.8594V20.9766C57.2627 21.1014 57.213 21.221 57.1249 21.3093C57.0366 21.3975 56.9169 21.4472 56.7921 21.4472H50.2045V28.0295C50.2045 28.1543 50.1548 28.274 50.0666 28.3622C49.9783 28.4505 49.8587 28.5 49.7339 28.5H43.6168C43.4919 28.5 43.3722 28.4505 43.2841 28.3622C43.1958 28.274 43.1462 28.1543 43.1462 28.0295V7.80661C43.1462 7.68173 43.1958 7.56206 43.2841 7.47386C43.3722 7.38556 43.4919 7.33603 43.6168 7.33603H49.7339C49.8587 7.33603 49.9783 7.38556 50.0666 7.47386C50.1548 7.56206 50.2045 7.68173 50.2045 7.80661V14.389H56.7921C56.9169 14.389 57.0366 14.4385 57.1249 14.5268Z" fill="white"/>
</svg>
