<svg width="114" height="39" viewBox="0 0 114 39" fill="none" xmlns="http://www.w3.org/2000/svg">
<path d="M81.6385 11.4691H83.6476V27.3325H81.6385V11.4691ZM77.6385 11.4691H79.6295V27.3325H77.6385V11.4691ZM93.1137 22.4112C93.1137 25.1873 91.3218 26.0346 89.4576 26.0346C88.0277 26.0346 87.177 25.2955 87.177 24.1779C87.177 22.5555 89.4938 22.0147 93.1137 21.6722V22.4112ZM94.9236 22.916L94.9417 20.176C94.9779 16.841 93.5662 15.3268 90.254 15.3268C87.9734 15.3268 85.6748 16.7509 85.5119 19.2927H87.5752C87.6657 17.8325 88.6069 16.9492 90.272 16.9492C91.7743 16.9492 92.9508 17.6522 92.9508 19.8154V20.1038C88.1182 20.6266 84.9508 21.4558 84.9508 24.2319C84.9508 26.3951 86.7969 27.6209 89.0232 27.6209C91.1227 27.6209 92.3354 26.9539 93.0594 25.7281C93.0775 26.2689 93.1318 26.8097 93.2223 27.3325H95.2313C94.9779 26.2149 94.9055 24.8809 94.9236 22.898V22.916ZM102.145 15.5071C100.589 15.5612 99.4123 16.2822 98.815 17.6162V15.5612H96.8603V27.3325H98.8512V21.1494C98.8512 18.5355 99.7743 17.5441 101.62 17.5441C102.001 17.5621 102.363 17.5801 102.743 17.6522V15.5251C102.544 15.5071 102.344 15.5071 102.145 15.5071ZM62.5435 12.6228H60.5344V15.5612H58.6702V17.1655H60.5344V24.3761C60.5344 26.8278 61.0593 27.3325 63.3218 27.3325H64.7878V25.656H63.7743C62.634 25.656 62.5435 25.3496 62.5435 24.1418V17.1655H64.7878V15.5612H62.5435V12.6228ZM52.8964 18.2471L51.0503 17.8325C49.548 17.49 48.4439 16.805 48.4439 15.3989C48.4439 13.6143 50.5978 13.0735 51.8285 13.0735C53.4213 13.0735 55.2675 13.7044 55.7923 15.5251H57.9643C57.3308 12.4786 54.7969 11.1987 51.9371 11.1987C49.367 11.1987 46.1815 12.4786 46.1815 15.5251C46.1815 18.157 48.3534 19.3828 50.5435 19.8515L52.5344 20.2661C54.5435 20.7348 55.9552 21.3837 55.9552 23.0782C55.9552 24.6465 54.6159 25.7462 52.2448 25.7462C49.7652 25.7462 48.2629 24.6105 47.8466 22.4112H45.6566C46.0729 25.5659 48.4439 27.6209 52.1905 27.6209C55.358 27.6209 58.2539 25.9625 58.2539 22.8619C58.2539 19.6712 55.3218 18.7519 52.8964 18.2291V18.2471ZM67.2132 20.4103C67.3942 18.0308 69.0231 17.0754 70.7788 17.0754C72.9146 17.0754 74.1091 18.7338 74.1815 20.4103H67.2132ZM70.7788 15.3629C67.5571 15.3629 65.0412 17.7424 65.0412 21.4739C65.0412 24.953 67.1046 27.6209 70.8331 27.6209C73.7109 27.6209 75.6114 25.9445 76.1182 23.9255H74.091C73.5842 25.0792 72.6069 25.8723 70.8512 25.8723C69.0955 25.8723 67.2675 24.6465 67.2132 22.1228H76.2992C76.5526 18.3733 74.4168 15.3809 70.7969 15.3809L70.7788 15.3629ZM38.9778 13.7765L17.8737 24.4843L16.0276 25.4037L12.2448 27.3325V29.6399L16.0095 27.7291L19.2312 26.0887L34.7968 18.193C35.4665 23.2405 31.9009 27.8733 26.833 28.5403C26.4348 28.5944 26.0185 28.6304 25.6022 28.6304C24.0276 28.6304 22.471 28.2158 21.0773 27.4407L20.9687 27.5128L18.9778 28.5042C24.0276 32.1636 31.1045 31.046 34.7787 25.9985C36.1724 24.0877 36.9326 21.7803 36.9326 19.4008C36.9326 19.1124 36.9326 18.824 36.8964 18.5355C36.8421 17.7063 37.2765 16.9312 38.0186 16.5526L38.9778 16.0479V13.7765ZM35.2131 11.0906L31.9914 12.713L16.4439 20.6086C15.7742 15.5612 19.3579 10.9283 24.4258 10.2613C26.3986 10.009 28.4077 10.3875 30.1452 11.361L31.9914 10.4236L32.2629 10.2794C27.2131 6.61998 20.1362 7.75565 16.462 12.7851C15.0502 14.7139 14.3081 17.0213 14.3081 19.4008C14.3081 19.6892 14.3081 19.9777 14.3262 20.2661C14.3986 21.0773 13.9642 21.8705 13.2221 22.249L12.2448 22.7357V25.0431L15.1045 23.583L16.0276 23.1143L16.9506 22.6636L33.3308 14.3353L35.1769 13.398L38.9778 11.4691V9.16172L35.2131 11.0906Z" fill="white"/>
</svg>
