<svg width="119" height="41" viewBox="0 0 119 41" fill="none" xmlns="http://www.w3.org/2000/svg">
<path fill-rule="evenodd" clip-rule="evenodd" d="M36.5956 25.0587C36.0001 25.6573 35.2953 26.1316 34.481 26.4822C33.6667 26.8324 32.7674 27.0079 31.783 27.0079C30.7987 27.0079 29.8996 26.8356 29.0852 26.4912C28.6681 26.3149 28.2812 26.1059 27.9248 25.8642L23.9555 29.8121L22.383 28.2481L26.3402 24.3124C26.0559 23.9113 25.8164 23.4744 25.6216 23.0011C25.2935 22.2032 25.1294 21.3573 25.1294 20.463C25.1294 19.5684 25.2935 18.7223 25.6216 17.9246C25.9497 17.127 26.4115 16.4288 27.007 15.8305C27.6024 15.2322 28.3073 14.7579 29.1216 14.4074C29.9359 14.0568 30.8351 13.8814 31.8196 13.8814C32.8038 13.8814 33.7031 14.0539 34.5174 14.3983C34.9345 14.5747 35.3214 14.7836 35.6778 15.0252L39.6473 11.0772L41.2198 12.6413L37.2623 16.5773C37.5466 16.9782 37.7862 17.4151 37.9807 17.8882C38.309 18.6861 38.4731 19.5322 38.4731 20.4268C38.4731 21.3211 38.309 22.1672 37.9807 22.9648C37.6526 23.7626 37.191 24.4607 36.5956 25.0587ZM28.0126 22.6491L34.0973 16.5971C33.9197 16.4841 33.7316 16.3829 33.5328 16.2931C32.9984 16.0512 32.4151 15.9303 31.783 15.9303C31.1511 15.9303 30.571 16.0482 30.0421 16.2838C29.5137 16.5196 29.0609 16.8398 28.684 17.2446C28.3073 17.6497 28.0126 18.1269 27.7999 18.6771C27.5875 19.227 27.4812 19.8101 27.4812 20.4268C27.4812 21.0429 27.5875 21.6264 27.7999 22.1762C27.8634 22.3399 27.9342 22.4977 28.0126 22.6491ZM31.8196 24.9592C32.4515 24.9592 33.0316 24.8415 33.5604 24.6057C34.0891 24.3699 34.5417 24.0495 34.9185 23.6446C35.2953 23.2398 35.5899 22.7625 35.8027 22.2127C36.0151 21.6625 36.1214 21.0794 36.1214 20.463C36.1214 19.8466 36.0151 19.2632 35.8027 18.7133C35.7393 18.5494 35.6684 18.3918 35.5899 18.2407L29.5056 24.2921C29.6829 24.4054 29.871 24.5066 30.0695 24.5967C30.6042 24.8383 31.1875 24.9592 31.8196 24.9592Z" fill="white"/>
<path d="M17.4204 23.3202L18.864 24.7762C18.5351 25.1279 18.1909 25.4404 17.8317 25.7135C17.4722 25.9863 17.0854 26.223 16.6712 26.4233C16.257 26.6235 15.803 26.7749 15.3097 26.8781C14.8163 26.9812 14.2712 27.0328 13.6741 27.0328C12.7362 27.0328 11.871 26.863 11.0791 26.5233C10.2872 26.1835 9.60204 25.7194 9.02338 25.131C8.44473 24.5425 7.99083 23.8479 7.66193 23.0474C7.33303 22.2465 7.16858 21.3851 7.16858 20.4631C7.16858 19.5531 7.32982 18.6976 7.65281 17.8969C7.97579 17.096 8.42944 16.3955 9.01426 15.7949C9.59908 15.1943 10.2934 14.7211 11.0976 14.3754C11.9016 14.0297 12.7909 13.8566 13.7656 13.8566C14.3501 13.8566 14.8832 13.9052 15.3644 14.0024C15.8457 14.0994 16.2873 14.2357 16.6894 14.4117C17.0915 14.5876 17.4631 14.797 17.804 15.0396C18.1453 15.2824 18.4681 15.5493 18.7725 15.8406L17.3287 17.4965C16.8174 17.0233 16.2752 16.641 15.7025 16.35C15.13 16.0588 14.4781 15.9132 13.7473 15.9132C13.1381 15.9132 12.5747 16.0316 12.0569 16.268C11.5392 16.5047 11.0915 16.8261 10.7137 17.2325C10.336 17.6391 10.0439 18.1152 9.8365 18.6611C9.62941 19.2071 9.5261 19.7957 9.5261 20.4267C9.5261 21.0573 9.62941 21.649 9.8365 22.201C10.0439 22.753 10.336 23.2352 10.7137 23.6477C11.0915 24.0605 11.5392 24.3848 12.0569 24.6215C12.5747 24.8582 13.1381 24.9763 13.7473 24.9763C14.5269 24.9763 15.197 24.8278 15.7572 24.5307C16.3178 24.2333 16.8721 23.8297 17.4204 23.3202Z" fill="white"/>
<path d="M48.4059 16.3836C48.0422 16.68 47.8605 17.0401 47.8605 17.4639C47.8605 17.718 47.9031 17.9358 47.9877 18.1175C48.0729 18.2991 48.2271 18.4686 48.4512 18.6258C48.6785 18.7834 48.9875 18.9286 49.3813 19.0617C49.7781 19.1947 50.2778 19.3341 50.8867 19.4794C51.5531 19.6489 52.147 19.8365 52.6617 20.0421C53.1767 20.2478 53.6067 20.4992 53.9462 20.7956C54.2853 21.0925 54.5456 21.4372 54.7215 21.8306C54.8973 22.2241 54.9851 22.6871 54.9851 23.2197C54.9851 23.825 54.873 24.3637 54.6518 24.8358C54.4277 25.3078 54.1188 25.7072 53.722 26.034C53.3282 26.3608 52.8496 26.6089 52.2953 26.7787C51.738 26.948 51.126 27.0328 50.4595 27.0328C49.4781 27.0328 48.5392 26.8664 47.6426 26.5335C46.746 26.2006 45.916 25.689 45.1527 24.9992L46.4974 23.4012C47.1156 23.9341 47.7394 24.3424 48.3696 24.6268C48.9995 24.9112 49.7145 25.0535 50.5142 25.0535C51.2047 25.0535 51.753 24.9086 52.159 24.6177C52.5649 24.3275 52.7677 23.9341 52.7677 23.4374C52.7677 23.2074 52.7284 23.0019 52.6497 22.8201C52.571 22.6386 52.4254 22.4722 52.2135 22.3208C51.9985 22.1697 51.7076 22.0274 51.338 21.8941C50.9653 21.7611 50.484 21.6219 49.8901 21.4766C49.2087 21.3192 48.6057 21.144 48.0755 20.9502C47.5486 20.7564 47.1033 20.5144 46.746 20.2238C46.3885 19.9333 46.1129 19.5822 45.925 19.1707C45.7372 18.7591 45.6434 18.2567 45.6434 17.6636C45.6434 17.1067 45.7524 16.6014 45.9675 16.1474C46.1855 15.6935 46.4825 15.3032 46.861 14.9762C47.2399 14.6494 47.694 14.3983 48.2271 14.2229C48.7572 14.0472 49.3388 13.9595 49.9688 13.9595C50.9019 13.9595 51.7407 14.0957 52.4861 14.3681C53.2314 14.6403 53.9312 15.0367 54.5851 15.5573L53.3855 17.2459C52.8041 16.8223 52.2287 16.4985 51.659 16.2746C51.0897 16.0506 50.5142 15.9385 49.9326 15.9385C49.2783 15.9385 48.7693 16.0867 48.4059 16.3836Z" fill="white"/>
<path d="M72.7398 17.6438V26.7239H74.9605V14.0625H72.5757L68.6986 20.0496L64.8215 14.0625H62.4371V26.7239H64.6577V17.6799L68.6438 23.6129H68.7168L72.7398 17.6438Z" fill="white"/>
<path fill-rule="evenodd" clip-rule="evenodd" d="M95.4783 17.8785C95.8067 18.6795 95.9708 19.5288 95.9708 20.4267C95.9708 21.3245 95.8067 22.1738 95.4783 22.9745C95.1503 23.7752 94.6882 24.4759 94.0924 25.0763C93.4963 25.6771 92.7913 26.1533 91.9762 26.5051C91.1617 26.8567 90.2617 27.0328 89.2768 27.0328C88.2918 27.0328 87.392 26.8599 86.5775 26.5141C85.7627 26.1684 85.0633 25.6982 84.4799 25.1038C83.8961 24.5093 83.4403 23.8117 83.1118 23.0108C82.7835 22.2098 82.6194 21.3608 82.6194 20.4631C82.6194 19.5651 82.7835 18.7158 83.1118 17.9151C83.4403 17.1144 83.902 16.4136 84.498 15.813C85.0938 15.2125 85.7991 14.7364 86.6139 14.3845C87.4287 14.0326 88.3285 13.8566 89.3135 13.8566C90.2984 13.8566 91.1981 14.0297 92.0126 14.3754C92.8277 14.7211 93.5268 15.1911 94.1106 15.7858C94.694 16.3802 95.1503 17.0781 95.4783 17.8785ZM93.2988 22.2195C93.5115 21.6672 93.6179 21.0818 93.6179 20.4631C93.6179 19.8443 93.5115 19.2587 93.2988 18.7067C93.0861 18.1548 92.7881 17.6723 92.4049 17.26C92.022 16.8475 91.5628 16.52 91.028 16.2774C90.4931 16.0345 89.9093 15.9132 89.2768 15.9132C88.6447 15.9132 88.0639 16.0316 87.535 16.268C87.0062 16.5047 86.5532 16.8261 86.1761 17.2325C85.7991 17.6391 85.5043 18.1182 85.2914 18.6704C85.0788 19.2224 84.9722 19.8077 84.9722 20.4268C84.9722 21.0453 85.0788 21.6309 85.2914 22.1828C85.5043 22.7348 85.8023 23.2171 86.1853 23.6298C86.5682 24.0421 87.0273 24.3697 87.5624 24.6125C88.0974 24.855 88.681 24.9763 89.3135 24.9763C89.9457 24.9763 90.5263 24.8583 91.0553 24.6215C91.5842 24.3848 92.0373 24.0631 92.414 23.6568C92.7913 23.2505 93.0861 22.7714 93.2988 22.2195Z" fill="white"/>
<path d="M105.303 17.4639C105.303 17.0401 105.484 16.68 105.848 16.3836C106.211 16.0867 106.72 15.9385 107.375 15.9385C107.956 15.9385 108.532 16.0506 109.101 16.2746C109.671 16.4985 110.246 16.8223 110.828 17.2459L112.027 15.5573C111.373 15.0367 110.674 14.6403 109.928 14.3681C109.183 14.0957 108.344 13.9595 107.411 13.9595C106.781 13.9595 106.199 14.0472 105.669 14.2229C105.136 14.3983 104.682 14.6494 104.303 14.9762C103.925 15.3032 103.628 15.6935 103.409 16.1474C103.195 16.6014 103.086 17.1067 103.086 17.6636C103.086 18.2567 103.179 18.7591 103.367 19.1707C103.555 19.5822 103.831 19.9333 104.188 20.2238C104.545 20.5144 104.991 20.7564 105.518 20.9502C106.048 21.144 106.651 21.3192 107.332 21.4766C107.926 21.6219 108.408 21.7611 108.78 21.8941C109.15 22.0274 109.441 22.1697 109.656 22.3208C109.868 22.4722 110.013 22.6386 110.092 22.8201C110.171 23.0019 110.21 23.2074 110.21 23.4374C110.21 23.9341 110.006 24.3275 109.601 24.6177C109.195 24.9086 108.647 25.0535 107.956 25.0535C107.156 25.0535 106.441 24.9112 105.812 24.6268C105.182 24.3424 104.558 23.9341 103.94 23.4012L102.595 24.9992C103.358 25.689 104.188 26.2006 105.085 26.5335C105.981 26.8664 106.92 27.0328 107.902 27.0328C108.568 27.0328 109.18 26.948 109.737 26.7787C110.291 26.6089 110.77 26.3608 111.164 26.034C111.561 25.7072 111.87 25.3078 112.094 24.8358C112.315 24.3637 112.427 23.825 112.427 23.2197C112.427 22.6871 112.339 22.2241 112.164 21.8306C111.988 21.4372 111.727 21.0925 111.388 20.7956C111.049 20.4992 110.619 20.2478 110.104 20.0421C109.589 19.8365 108.995 19.6489 108.329 19.4794C107.72 19.3341 107.22 19.1947 106.823 19.0617C106.43 18.9286 106.121 18.7834 105.893 18.6258C105.669 18.4686 105.515 18.2991 105.43 18.1175C105.345 17.9358 105.303 17.718 105.303 17.4639Z" fill="white"/>
</svg>
