<svg width="119" height="41" viewBox="0 0 119 41" fill="none" xmlns="http://www.w3.org/2000/svg">
<path fill-rule="evenodd" clip-rule="evenodd" d="M36.5966 25.281C36.0011 25.8796 35.2963 26.3539 34.482 26.7044C33.6676 27.0546 32.7684 27.2301 31.784 27.2301C30.7997 27.2301 29.9005 27.0578 29.0862 26.7134C28.6691 26.5371 28.2822 26.3282 27.9258 26.0865L23.9565 30.0343L22.384 28.4703L26.3412 24.5346C26.0568 24.1335 25.8173 23.6966 25.6226 23.2233C25.2944 22.4254 25.1304 21.5796 25.1304 20.6852C25.1304 19.7907 25.2944 18.9446 25.6226 18.1469C25.9507 17.3492 26.4125 16.6511 27.008 16.0527C27.6033 15.4544 28.3083 14.9801 29.1226 14.6296C29.9369 14.2791 30.836 14.1037 31.8206 14.1037C32.8048 14.1037 33.704 14.2761 34.5183 14.6205C34.9355 14.7969 35.3224 15.0058 35.6788 15.2475L39.6483 11.2994L41.2208 12.8635L37.2633 16.7995C37.5476 17.2005 37.7872 17.6373 37.9817 18.1104C38.31 18.9083 38.4741 19.7545 38.4741 20.649C38.4741 21.5433 38.31 22.3895 37.9817 23.1871C37.6536 23.9848 37.192 24.6829 36.5966 25.281ZM28.0136 22.8713L34.0982 16.8194C33.9207 16.7063 33.7326 16.6051 33.5338 16.5153C32.9994 16.2734 32.4161 16.1526 31.784 16.1526C31.1521 16.1526 30.572 16.2705 30.0431 16.506C29.5147 16.7418 29.0619 17.062 28.685 17.4669C28.3083 17.8719 28.0136 18.3492 27.8009 18.8993C27.5884 19.4492 27.4822 20.0323 27.4822 20.649C27.4822 21.2652 27.5884 21.8486 27.8009 22.3985C27.8643 22.5622 27.9352 22.7199 28.0136 22.8713ZM31.8206 25.1815C32.4524 25.1815 33.0326 25.0637 33.5614 24.828C34.0901 24.5922 34.5427 24.2717 34.9194 23.8668C35.2963 23.462 35.5909 22.9848 35.8037 22.4349C36.0161 21.8847 36.1224 21.3016 36.1224 20.6852C36.1224 20.0688 36.0161 19.4854 35.8037 18.9355C35.7402 18.7716 35.6694 18.6141 35.5909 18.4629L29.5065 24.5144C29.6838 24.6276 29.872 24.7289 30.0704 24.8189C30.6052 25.0606 31.1885 25.1815 31.8206 25.1815Z" fill="white"/>
<path d="M17.4214 23.5424L18.865 24.9984C18.536 25.3501 18.1919 25.6626 17.8326 25.9357C17.4732 26.2085 17.0863 26.4452 16.6721 26.6456C16.2579 26.8457 15.804 26.9971 15.3107 27.1003C14.8173 27.2034 14.2722 27.255 13.6751 27.255C12.7372 27.255 11.872 27.0853 11.0801 26.7455C10.2882 26.4057 9.60301 25.9416 9.02436 25.3533C8.4457 24.7647 7.9918 24.0701 7.66291 23.2696C7.334 22.4687 7.16956 21.6073 7.16956 20.6853C7.16956 19.7753 7.3308 18.9199 7.65378 18.1192C7.97676 17.3182 8.43042 16.6177 9.01524 16.0171C9.60005 15.4165 10.2943 14.9434 11.0986 14.5976C11.9026 14.2519 12.7919 14.0788 13.7665 14.0788C14.3511 14.0788 14.8841 14.1274 15.3654 14.2247C15.8467 14.3217 16.2883 14.4579 16.6904 14.634C17.0925 14.8098 17.464 15.0192 17.805 15.2618C18.1463 15.5047 18.469 15.7716 18.7735 16.0628L17.3297 17.7187C16.8183 17.2455 16.2762 16.8632 15.7034 16.5723C15.1309 16.2811 14.4791 16.1355 13.7483 16.1355C13.1391 16.1355 12.5757 16.2538 12.0579 16.4903C11.5402 16.727 11.0924 17.0484 10.7147 17.4547C10.337 17.8614 10.0448 18.3375 9.83748 18.8833C9.63039 19.4294 9.52708 20.0179 9.52708 20.649C9.52708 21.2795 9.63039 21.8712 9.83748 22.4233C10.0448 22.9753 10.337 23.4575 10.7147 23.8699C11.0924 24.2827 11.5402 24.607 12.0579 24.8437C12.5757 25.0804 13.1391 25.1986 13.7483 25.1986C14.5279 25.1986 15.198 25.05 15.7582 24.7529C16.3188 24.4555 16.8731 24.052 17.4214 23.5424Z" fill="white"/>
<path d="M48.4069 16.6058C48.0432 16.9022 47.8615 17.2623 47.8615 17.6861C47.8615 17.9402 47.9041 18.158 47.9887 18.3397C48.0738 18.5213 48.2281 18.6908 48.4522 18.8481C48.6795 19.0056 48.9885 19.1509 49.3823 19.2839C49.779 19.4169 50.2788 19.5563 50.8876 19.7016C51.5541 19.8711 52.148 20.0588 52.6627 20.2643C53.1776 20.4701 53.6077 20.7214 53.9471 21.0178C54.2863 21.3147 54.5466 21.6594 54.7225 22.0529C54.8983 22.4463 54.9861 22.9093 54.9861 23.4419C54.9861 24.0473 54.874 24.586 54.6528 25.058C54.4287 25.5301 54.1197 25.9294 53.723 26.2562C53.3292 26.583 52.8506 26.8312 52.2963 27.0009C51.739 27.1702 51.127 27.255 50.4605 27.255C49.4791 27.255 48.5402 27.0887 47.6435 26.7557C46.747 26.4228 45.917 25.9112 45.1536 25.2214L46.4983 23.6234C47.1165 24.1563 47.7404 24.5647 48.3706 24.8491C49.0005 25.1335 49.7155 25.2758 50.5151 25.2758C51.2057 25.2758 51.754 25.1308 52.16 24.84C52.5658 24.5497 52.7686 24.1563 52.7686 23.6597C52.7686 23.4296 52.7294 23.2242 52.6506 23.0423C52.572 22.8608 52.4263 22.6945 52.2145 22.543C51.9994 22.3919 51.7085 22.2496 51.339 22.1163C50.9663 21.9834 50.485 21.8441 49.8911 21.6988C49.2097 21.5414 48.6067 21.3662 48.0765 21.1724C47.5496 20.9787 47.1043 20.7366 46.747 20.4461C46.3895 20.1555 46.1139 19.8045 45.926 19.3929C45.7382 18.9814 45.6444 18.4789 45.6444 17.8858C45.6444 17.329 45.7534 16.8236 45.9685 16.3696C46.1865 15.9157 46.4834 15.5254 46.862 15.1984C47.2409 14.8716 47.6949 14.6205 48.2281 14.4451C48.7582 14.2695 49.3398 14.1817 49.9698 14.1817C50.9029 14.1817 51.7416 14.318 52.4871 14.5904C53.2323 14.8625 53.9321 15.2589 54.5861 15.7795L53.3865 17.4681C52.8051 17.0446 52.2297 16.7207 51.66 16.4968C51.0907 16.2729 50.5151 16.1607 49.9335 16.1607C49.2793 16.1607 48.7702 16.3089 48.4069 16.6058Z" fill="white"/>
<path d="M72.7407 17.866V26.9461H74.9614V14.2847H72.5767L68.6996 20.2718L64.8225 14.2847H62.438V26.9461H64.6586V17.9021L68.6448 23.8351H68.7178L72.7407 17.866Z" fill="white"/>
<path fill-rule="evenodd" clip-rule="evenodd" d="M95.4793 18.1008C95.8076 18.9017 95.9718 19.751 95.9718 20.649C95.9718 21.5467 95.8076 22.396 95.4793 23.1967C95.1513 23.9974 94.6892 24.6982 94.0934 25.2985C93.4973 25.8993 92.7923 26.3755 91.9772 26.7274C91.1627 27.0789 90.2626 27.255 89.2778 27.255C88.2928 27.255 87.393 27.0821 86.5785 26.7364C85.7637 26.3906 85.0643 25.9204 84.4808 25.326C83.8971 24.7315 83.4413 24.0339 83.1128 23.2331C82.7845 22.4321 82.6204 21.5831 82.6204 20.6853C82.6204 19.7874 82.7845 18.938 83.1128 18.1373C83.4413 17.3366 83.9029 16.6359 84.499 16.0353C85.0948 15.4347 85.8001 14.9586 86.6149 14.6067C87.4297 14.2549 88.3294 14.0788 89.3145 14.0788C90.2993 14.0788 91.1991 14.2519 92.0136 14.5976C92.8286 14.9434 93.5278 15.4133 94.1116 16.008C94.695 16.6025 95.1513 17.3003 95.4793 18.1008ZM93.2997 22.4417C93.5125 21.8895 93.6189 21.3041 93.6189 20.6853C93.6189 20.0666 93.5125 19.4809 93.2997 18.929C93.0871 18.377 92.7891 17.8945 92.4059 17.4822C92.023 17.0697 91.5638 16.7422 91.029 16.4996C90.494 16.2568 89.9103 16.1355 89.2778 16.1355C88.6456 16.1355 88.0649 16.2538 87.536 16.4903C87.0071 16.727 86.5541 17.0484 86.1771 17.4548C85.8001 17.8614 85.5052 18.3404 85.2924 18.8926C85.0798 19.4446 84.9732 20.03 84.9732 20.649C84.9732 21.2675 85.0798 21.8531 85.2924 22.405C85.5052 22.957 85.8032 23.4393 86.1862 23.852C86.5691 24.2643 87.0283 24.5919 87.5633 24.8347C88.0984 25.0773 88.682 25.1986 89.3145 25.1986C89.9467 25.1986 90.5272 25.0805 91.0563 24.8437C91.5852 24.607 92.0383 24.2854 92.415 23.879C92.7923 23.4727 93.0871 22.9936 93.2997 22.4417Z" fill="white"/>
<path d="M105.304 17.6861C105.304 17.2623 105.485 16.9022 105.849 16.6058C106.212 16.3089 106.721 16.1607 107.376 16.1607C107.957 16.1607 108.533 16.2729 109.102 16.4968C109.672 16.7207 110.247 17.0446 110.829 17.4681L112.028 15.7795C111.374 15.2589 110.675 14.8625 109.929 14.5904C109.184 14.318 108.345 14.1817 107.412 14.1817C106.782 14.1817 106.2 14.2695 105.67 14.4451C105.137 14.6205 104.683 14.8716 104.304 15.1984C103.926 15.5254 103.629 15.9157 103.41 16.3696C103.196 16.8236 103.086 17.329 103.086 17.8858C103.086 18.4789 103.18 18.9814 103.368 19.3929C103.556 19.8045 103.832 20.1555 104.189 20.4461C104.546 20.7366 104.992 20.9787 105.519 21.1724C106.049 21.3662 106.652 21.5414 107.333 21.6988C107.927 21.8441 108.409 21.9834 108.781 22.1163C109.15 22.2496 109.442 22.3919 109.657 22.543C109.868 22.6945 110.014 22.8608 110.093 23.0423C110.172 23.2242 110.211 23.4296 110.211 23.6597C110.211 24.1563 110.007 24.5497 109.602 24.84C109.196 25.1308 108.648 25.2758 107.957 25.2758C107.157 25.2758 106.442 25.1335 105.813 24.8491C105.183 24.5647 104.559 24.1563 103.94 23.6234L102.596 25.2214C103.359 25.9112 104.189 26.4228 105.086 26.7557C105.982 27.0887 106.921 27.255 107.903 27.255C108.569 27.255 109.181 27.1702 109.738 27.0009C110.292 26.8312 110.771 26.583 111.165 26.2562C111.562 25.9294 111.871 25.5301 112.095 25.058C112.316 24.586 112.428 24.0473 112.428 23.4419C112.428 22.9093 112.34 22.4463 112.165 22.0529C111.989 21.6594 111.728 21.3147 111.389 21.0178C111.05 20.7214 110.62 20.4701 110.105 20.2643C109.59 20.0588 108.996 19.8711 108.33 19.7016C107.721 19.5563 107.221 19.4169 106.824 19.2839C106.431 19.1509 106.122 19.0056 105.894 18.8481C105.67 18.6908 105.516 18.5213 105.431 18.3397C105.346 18.158 105.304 17.9402 105.304 17.6861Z" fill="white"/>
</svg>
