<svg width="131" height="37" viewBox="0 0 131 37" fill="none" xmlns="http://www.w3.org/2000/svg">
<path d="M18.0251 23.9006L22.3575 13.5008H25.5879V27.0601H23.4583V15.5753L18.6717 27.1326H17.1399L12.4007 15.6477V27.0601H10.3429V13.5008H13.717L18.0251 23.9006Z" fill="white"/>
<path d="M37.247 24.8655C36.7917 25.8303 35.4768 27.3267 33.2982 27.3267C30.3539 27.3267 28.3435 25.0828 28.3435 21.9943V15.1422H30.545V21.5843C30.545 23.8282 31.8139 25.3001 33.8242 25.3001C35.8346 25.3001 37.247 23.7804 37.247 21.5843V15.1422H39.4256V27.0616H37.247V24.8655Z" fill="white"/>
<path d="M52.5155 27.0601C49.7622 27.0601 48.3755 25.7331 48.3755 23.0792V17.1195H45.7769V15.1406H48.3755V12.1355H50.5541V15.1406H55.3162V17.1195H50.5541V22.5722C50.5541 24.3091 51.1043 25.0334 52.9954 25.0334H55.3176V27.0601H52.5155Z" fill="white"/>
<path d="M67.9337 27.2775H66.1865L60.6095 15.1422H63.0508L67.119 24.3339L71.1642 15.1422H73.4131L67.9325 27.2775H67.9337Z" fill="white"/>
<path d="M85.4533 21.367H75.6171C75.7365 23.5864 77.3171 25.3246 79.6378 25.3246C81.9585 25.3246 82.9644 24.0455 83.1556 23.6601H85.3096C85.1185 24.6974 83.6097 27.3513 79.6378 27.3513C75.9765 27.3513 73.4143 24.6003 73.4143 21.1019C73.4143 17.6034 75.975 14.8524 79.4209 14.8524C82.8668 14.8524 85.452 17.4585 85.452 21.367H85.4533ZM75.7608 19.533H83.0362C82.486 17.7237 81.2172 16.7342 79.4224 16.7342C77.5083 16.7342 76.2149 17.7961 75.7608 19.533Z" fill="white"/>
<path d="M89.7432 27.06H87.5648V15.142H89.7432V17.3381C90.078 16.4689 91.0838 15.0463 93.8602 15.0463H95.1372V17.2424H93.8126C90.7733 17.2424 89.7444 18.2073 89.7444 20.3309V27.0628L89.7432 27.06Z" fill="white"/>
<path d="M99.9292 21.8247C97.6558 21.5596 96.0522 20.4732 96.0522 18.2784C96.0522 16.0837 98.0151 14.8045 100.911 14.8045C104.908 14.8045 106.2 16.879 106.582 18.0857H104.26C103.997 17.7714 103.112 16.6863 100.909 16.6863C99.1145 16.6863 98.2048 17.3382 98.2048 18.206C98.2048 19.0738 98.804 19.5808 100.215 19.7502C101.148 19.8705 101.723 19.9197 102.752 20.04C105.552 20.4021 106.748 21.6075 106.748 23.8036C106.748 25.807 104.929 27.3991 101.579 27.3991C97.4146 27.3991 95.9546 24.8176 95.6916 23.7325H98.0139C98.133 24.1179 99.09 25.4694 101.58 25.4694C103.591 25.4694 104.572 24.7451 104.572 23.8049C104.572 22.8647 104.069 22.3085 102.466 22.1158L99.9292 21.8261V21.8247Z" fill="white"/>
<path d="M56.9447 9.39566H59.2182V12.8463H56.9447V9.39566ZM56.9923 15.1381H59.1706V27.0575H56.9923V15.1381Z" fill="white"/>
<path d="M42.1816 11.477H44.3602V27.0576H42.1816V11.477Z" fill="white"/>
<path d="M115.494 16.6618L120.783 13.8329L119.894 12.122L115.051 14.083C114.926 14.1336 114.788 14.1336 114.663 14.083L109.819 12.122L108.93 13.8329L114.22 16.6618L108.93 19.4906L109.819 21.2016L114.663 19.2405C114.788 19.19 114.926 19.19 115.051 19.2405L119.894 21.2016L120.783 19.4906L115.494 16.6618Z" fill="#23F7DD"/>
</svg>
