<svg width="107" height="36" viewBox="0 0 107 36" fill="none" xmlns="http://www.w3.org/2000/svg">
<path fill-rule="evenodd" clip-rule="evenodd" d="M39.1463 7.11377H18.9127C18.788 7.11377 18.6683 7.1633 18.5801 7.2516C18.4918 7.3398 18.4423 7.45947 18.4423 7.58435V27.8178C18.4423 27.9426 18.4918 28.0623 18.5801 28.1505C18.6683 28.2388 18.788 28.2883 18.9127 28.2883H39.1463C39.2711 28.2883 39.3908 28.2388 39.479 28.1505C39.5673 28.0623 39.6168 27.9426 39.6168 27.8178V7.58435C39.6168 7.45947 39.5673 7.3398 39.479 7.2516C39.3908 7.1633 39.2711 7.11377 39.1463 7.11377ZM32.5586 20.7596C32.5586 20.8844 32.5091 21.0041 32.4208 21.0924C32.3326 21.1806 32.2129 21.2302 32.0881 21.2302H25.971C25.8462 21.2302 25.7265 21.1806 25.6382 21.0924C25.55 21.0041 25.5005 20.8844 25.5005 20.7596V14.6425C25.5005 14.5177 25.55 14.398 25.6382 14.3098C25.7265 14.2215 25.8462 14.172 25.971 14.172H32.0881C32.2129 14.172 32.3326 14.2215 32.4208 14.3098C32.5091 14.398 32.5586 14.5177 32.5586 14.6425V20.7596Z" fill="white"/>
<path d="M81.5069 14.1728H75.3898C75.13 14.1728 74.9193 14.3834 74.9193 14.6433V20.7604C74.9193 21.0203 75.13 21.231 75.3898 21.231H81.5069C81.7668 21.231 81.9775 21.0203 81.9775 20.7604V14.6433C81.9775 14.3834 81.7668 14.1728 81.5069 14.1728Z" fill="white"/>
<path d="M68.3288 7.11429H74.4458C74.7058 7.11429 74.9164 7.3249 74.9164 7.58487V13.7019C74.9164 13.9618 74.7058 14.1725 74.4458 14.1725H68.3288C68.0689 14.1725 67.8582 13.9618 67.8582 13.7019V7.58487C67.8582 7.3249 68.0689 7.11429 68.3288 7.11429Z" fill="white"/>
<path d="M88.5626 7.11429H82.4454C82.1856 7.11429 81.9748 7.3249 81.9748 7.58487V13.7019C81.9748 13.9618 82.1856 14.1725 82.4454 14.1725H88.5626C88.8225 14.1725 89.0331 13.9618 89.0331 13.7019V7.58487C89.0331 7.3249 88.8225 7.11429 88.5626 7.11429Z" fill="white"/>
<path d="M68.3288 21.2306H74.4458C74.7058 21.2306 74.9164 21.4412 74.9164 21.7011V27.8182C74.9164 28.0781 74.7058 28.2888 74.4458 28.2888H68.3288C68.0689 28.2888 67.8582 28.0781 67.8582 27.8182V21.7011C67.8582 21.4412 68.0689 21.2306 68.3288 21.2306Z" fill="white"/>
<path d="M88.5626 21.2306H82.4454C82.1856 21.2306 81.9748 21.4412 81.9748 21.7011V27.8182C81.9748 28.0781 82.1856 28.2888 82.4454 28.2888H88.5626C88.8225 28.2888 89.0331 28.0781 89.0331 27.8182V21.7011C89.0331 21.4412 88.8225 21.2306 88.5626 21.2306Z" fill="white"/>
<path d="M57.733 7.11429H63.8501C64.1099 7.11429 64.3206 7.3249 64.3206 7.58487V13.7019C64.3206 13.9618 64.1099 14.1725 63.8501 14.1725H57.733C57.4731 14.1725 57.2624 13.9618 57.2624 13.7019V7.58487C57.2624 7.3249 57.4731 7.11429 57.733 7.11429Z" fill="white"/>
<path d="M63.8501 21.2306H57.733C57.4731 21.2306 57.2624 21.4412 57.2624 21.7011V27.8182C57.2624 28.0781 57.4731 28.2888 57.733 28.2888H63.8501C64.1099 28.2888 64.3206 28.0781 64.3206 27.8182V21.7011C64.3206 21.4412 64.1099 21.2306 63.8501 21.2306Z" fill="white"/>
<path d="M57.1244 14.3045C57.2126 14.3927 57.2622 14.5124 57.2622 14.6372V20.7543C57.2622 20.8791 57.2126 20.9988 57.1244 21.0871C57.0361 21.1753 56.9164 21.2249 56.7916 21.2249H50.204V27.8073C50.204 27.932 50.1543 28.0517 50.0661 28.1399C49.9778 28.2282 49.8582 28.2777 49.7334 28.2777H43.6163C43.4914 28.2777 43.3718 28.2282 43.2836 28.1399C43.1953 28.0517 43.1457 27.932 43.1457 27.8073V7.58435C43.1457 7.45947 43.1953 7.3398 43.2836 7.2516C43.3718 7.1633 43.4914 7.11377 43.6163 7.11377H49.7334C49.8582 7.11377 49.9778 7.1633 50.0661 7.2516C50.1543 7.3398 50.204 7.45947 50.204 7.58435V14.1667H56.7916C56.9164 14.1667 57.0361 14.2162 57.1244 14.3045Z" fill="white"/>
</svg>
