<svg width="136" height="46" viewBox="0 0 136 46" fill="none" xmlns="http://www.w3.org/2000/svg">
<path d="M50.7798 22.6063L59.4939 11.6228L55.4646 11.6308H54.3399C53.2719 11.647 52.3495 12.1466 51.5728 13.1297L47.244 18.6175L42.9153 13.1378C42.1224 12.1385 41.2 11.647 40.1482 11.647H36.7499C36.1674 11.647 35.8842 11.8887 35.8842 12.3722C35.8842 12.614 35.9975 12.8718 36.2159 13.1458L43.7325 22.6144L35.779 32.7518C35.5605 33.0339 35.4473 33.2917 35.4473 33.5254C35.512 34.0009 35.8114 34.2346 36.3373 34.2346H39.7032C40.755 34.2346 41.6774 33.743 42.4541 32.7518L47.2683 26.6194L52.0987 32.7357C52.8835 33.7188 53.7978 34.2104 54.8497 34.2104L59.9551 34.2023L50.7798 22.6063ZM95.0137 34.1621L98.5253 29.7058L89.8921 29.7138C87.0602 29.7138 85.1265 29.2062 84.107 28.1747C83.0875 27.1432 82.5697 25.3865 82.5697 22.8964C82.5616 20.4064 83.0713 18.6416 84.0989 17.6021C85.1264 16.5626 87.0521 16.0468 89.884 16.0468L98.9622 16.0388L95.4183 11.5825L89.6979 11.5905C85.1264 11.5986 81.801 12.5092 79.7216 14.3304C78.775 15.1604 78.0549 16.2161 77.537 17.4812C78.1115 19.0204 78.3947 20.8254 78.4028 22.8964C78.4109 24.9675 78.1196 26.7725 77.5532 28.3117C78.071 29.5688 78.7911 30.6244 79.7459 31.4544C81.8334 33.2676 85.1588 34.1701 89.7303 34.1701L95.0137 34.1621ZM77.0192 19.0526C76.8897 18.5208 76.7117 17.997 76.5014 17.4812C75.9835 16.2241 75.2634 15.1604 74.3087 14.3385C72.2293 12.5173 68.8958 11.6067 64.3243 11.6147L60.7076 11.6228L57.1718 16.0791L64.1544 16.071C66.9863 16.071 68.92 16.5787 69.9395 17.6182C70.9671 18.6497 71.4768 20.4145 71.4768 22.9045C71.4768 25.3945 70.9752 27.1593 69.9476 28.1908C68.92 29.2223 67.0024 29.738 64.1706 29.738L57.6411 29.7461L61.1607 34.1943H64.3486C68.92 34.1862 72.2455 33.2756 74.333 31.4625C75.2796 30.6325 75.9997 29.5768 76.5176 28.3197C76.7279 27.8121 76.8978 27.2883 77.0273 26.7484C77.3186 25.4832 77.4561 24.1938 77.448 22.9045C77.4561 21.6071 77.3105 20.3178 77.0192 19.0526Z" fill="white"/>
<path d="M52.034 22.6225L56.565 28.3439L56.5488 16.901L52.034 22.6225Z" fill="white"/>
</svg>
