<svg width="131" height="37" viewBox="0 0 131 37" fill="none" xmlns="http://www.w3.org/2000/svg">
<path d="M54.2398 19.626H50.0697V17.433H56.706V23.6861L56.6285 23.7513C55.2671 24.803 52.8294 25.5735 50.8401 25.5735C46.5029 25.5735 43.4741 22.6466 43.4741 18.4643C43.4741 16.3201 44.2201 14.498 45.6305 13.2017C46.9513 11.9829 48.7978 11.3144 50.8401 11.3144C52.8538 11.3144 54.5863 11.9421 56.1149 13.2262L56.2413 13.3281L55.0347 15.2521L54.8675 15.0972C53.7139 14.0944 52.4421 13.6216 50.8646 13.6216C47.9418 13.6216 45.9648 15.5741 45.9648 18.4724C45.9648 21.3463 47.9662 23.2703 50.942 23.2703C52.1241 23.2703 53.343 22.9361 54.2398 22.398V19.626Z" fill="white"/>
<path d="M70.4759 23.1684V25.3737H59.6165V11.5059H70.4759V13.7113H61.9808V17.1109H69.0248V19.3203H61.9808V23.1684H70.4759Z" fill="white"/>
<path d="M86.1536 11.5059L80.7524 17.9955L75.3634 11.5059H73.1948V25.3737H75.6447V15.5089L80.4589 21.3096H81.0337L85.8479 15.5089V25.3737H88.2977V11.5059H86.1536Z" fill="white"/>
<path d="M94.3552 25.3737H91.9013V11.5059H94.3552V25.3737Z" fill="white"/>
<path d="M100.115 11.5671L100.05 11.5059H97.9464V25.3737H100.396V15.5212L108.635 25.3126L108.7 25.3737H110.791V11.5059H108.341V21.3993L100.115 11.5671Z" fill="white"/>
<path d="M116.836 25.3737H114.382V11.5059H116.836V25.3737Z" fill="white"/>
<path d="M29.2028 7.66602C25.3343 7.66602 22.0651 10.6418 21.6656 14.4083C17.899 14.8078 14.9274 18.077 14.9274 21.9455C14.9274 26.1115 18.2985 29.4827 22.4646 29.4827C26.333 29.4827 29.6023 26.5069 30.0017 22.7404C33.7683 22.345 36.744 19.0717 36.744 15.2032C36.74 11.0372 33.3688 7.66602 29.2028 7.66602ZM34.9545 16.0959C34.5591 18.6722 32.5739 20.6574 29.9977 21.0528V16.0959H34.9545ZM16.7087 21.0528C17.1041 18.4765 19.0893 16.4913 21.6656 16.0959V21.0528H16.7087ZM28.3101 22.7404C27.9146 25.6142 25.4362 27.6972 22.5624 27.6972C19.6886 27.6972 17.2061 25.6142 16.8106 22.7404H28.3101ZM28.3101 16.0959V21.0528H23.3532V16.0959H28.3101ZM34.9545 14.4083H23.3532C23.7486 11.5345 26.227 9.45146 29.1049 9.45146C32.0807 9.35363 34.5591 11.5345 34.9545 14.4083Z" fill="#00DCFA"/>
</svg>
