<svg width="107" height="36" viewBox="0 0 107 36" fill="none" xmlns="http://www.w3.org/2000/svg">
<path d="M27.4561 8.34109C27.8689 7.66928 28.6008 7.26062 29.389 7.26062C30.6417 7.26062 31.6567 8.2756 31.6567 9.52766V26.2767C31.6555 27.5288 30.6399 28.5432 29.3878 28.5426H28.9253C28.2589 28.542 27.6258 28.2485 27.1948 27.7398L13.96 11.8923C13.9266 11.8517 13.8763 11.8287 13.8241 11.8287C13.7259 11.8287 13.6465 11.9075 13.6465 12.0057V23.8999C13.6459 23.9442 13.6617 23.9873 13.6914 24.0206C13.7568 24.0934 13.869 24.1 13.9417 24.0345L18.3207 20.2365C18.4813 20.0983 18.7148 20.0837 18.8912 20.2014C19.1089 20.3463 19.1676 20.6397 19.0228 20.8574L14.5741 27.4621C14.1613 28.1339 13.4294 28.5426 12.6412 28.5426C11.3891 28.5426 10.3741 27.5276 10.3741 26.2755V9.52766C10.3741 8.2756 11.3891 7.26062 12.6412 7.26062H13.1038C13.7701 7.26123 14.4031 7.55469 14.8343 8.06339L28.0708 23.9078C28.1042 23.9485 28.154 23.9715 28.2067 23.9715C28.305 23.9715 28.3843 23.8927 28.3843 23.7944V11.9032C28.3843 11.859 28.3686 11.8159 28.3388 11.7826C28.2735 11.7098 28.1612 11.7032 28.0885 11.7686L23.7096 15.5666C23.5489 15.7049 23.3155 15.7194 23.139 15.6018C22.9214 15.4569 22.8626 15.1634 23.0075 14.9458L27.4561 8.34109Z" fill="white"/>
<path d="M71.1708 15.1731C71.1708 12.3574 74.3383 10.2164 78.0048 10.2164L78.0035 10.2158C82.1101 10.2158 84.5445 12.4744 84.5445 15.8765V24.764C84.5445 25.0277 84.3389 25.2333 84.0752 25.2333H81.9634C81.6991 25.2333 81.582 24.9695 81.7287 24.764L82.6086 23.3852C82.7553 23.1802 82.814 22.9159 82.6382 22.74C82.4333 22.5345 82.1987 22.5345 81.964 22.74L80.5265 23.9721C79.5587 24.7931 78.0041 25.497 76.1858 25.497C73.3408 25.497 70.8477 24.1188 70.8477 21.4789V21.0684C70.8477 18.4873 73.6344 16.7277 76.3913 16.7277H79.6466C79.8819 16.7277 80.1456 16.8454 80.1747 17.08C80.2336 17.3729 80.1159 17.6372 79.7934 17.7252L76.655 18.5758C74.485 19.0742 73.9568 19.9249 73.9568 20.9223C73.9568 22.0664 75.0422 22.7704 76.9194 22.7704C79.3247 22.7704 81.2607 21.4504 81.2607 18.8402V16.2882C81.2607 14.1763 79.911 12.9443 77.9168 12.9443C76.2451 12.9443 74.6906 13.8829 74.4559 15.1731C74.4262 15.4078 74.2503 15.5836 74.0157 15.5836H71.6401C71.3764 15.5836 71.1708 15.4078 71.1708 15.1731Z" fill="white"/>
<path d="M61.6388 10.2164C57.0927 10.2164 54.1889 13.0031 54.1889 16.7866V18.8693C54.1889 22.8583 57.0927 25.5861 61.6388 25.5861C65.657 25.5861 68.4727 23.5034 68.7662 20.6876C68.7959 20.3942 68.5903 20.1892 68.2968 20.1892H66.0092C65.8037 20.1892 65.6278 20.3069 65.569 20.5118C65.2755 21.4504 63.8973 22.8583 61.6388 22.8583C59.3802 22.8583 57.2684 21.2158 57.2975 18.8693L57.3272 16.2591C57.3564 14.294 59.4099 12.9449 61.6388 12.9449C63.6627 12.9449 65.6278 14.089 65.8327 15.9662C65.8498 16.1833 65.7005 16.3791 65.4866 16.4203L58.9103 17.6967C58.6466 17.7555 58.4411 17.9901 58.4411 18.283V18.3121C58.4411 18.5758 58.7049 18.8105 59.0862 18.8105H68.531C68.7904 18.8105 69.0002 18.6001 69.0002 18.3412V16.4937C69.0002 13.0037 65.9788 10.2171 61.6382 10.2171L61.6388 10.2164Z" fill="white"/>
<path d="M46.4758 10.2753C44.8624 10.2753 43.6892 10.6566 42.6924 11.5364L40.9322 13.0613C40.7855 13.1789 40.4921 13.2669 40.2871 13.0904C40.0816 12.9146 40.0525 12.6799 40.2283 12.4453L41.1668 11.0374C41.3136 10.8319 41.1966 10.5681 40.9322 10.5681H38.6737C38.41 10.5681 38.2044 10.7737 38.2044 11.0374V24.7646C38.2044 25.0283 38.41 25.2339 38.6737 25.2339H41.0201C41.2838 25.2339 41.4894 25.0283 41.4894 24.7646V17.0212C41.4894 13.4724 44.4519 12.9152 45.5664 12.9152C47.9419 12.9152 48.7927 14.6165 48.7927 15.9068V24.7646C48.7927 25.0283 48.9981 25.2339 49.2618 25.2339H51.6084C51.8721 25.2339 52.0777 25.0283 52.0777 24.7646V15.6133C52.0777 12.3283 49.9361 10.2753 46.4758 10.2753Z" fill="white"/>
<path d="M97.2155 10.5687H93.9303C92.7868 10.5687 91.6718 11.2727 90.88 11.9475L89.5897 13.0619C89.443 13.1795 89.1786 13.2675 89.0028 13.1207C88.7972 12.974 88.7093 12.6805 88.8858 12.4459L89.8244 11.038C89.9711 10.8325 89.8541 10.5687 89.5897 10.5687H87.39C87.1263 10.5687 86.9207 10.7743 86.9207 11.038V24.7652C86.9207 25.0289 87.1263 25.2345 87.39 25.2345H89.7953C90.059 25.2345 90.2646 25.0289 90.2646 24.7652V17.7258C90.2646 14.7045 91.4966 13.3554 94.1656 13.3554H97.2161C97.4798 13.3554 97.6854 13.1498 97.6854 12.8861V11.038C97.6854 10.7743 97.4798 10.5687 97.2155 10.5687Z" fill="white"/>
</svg>
