<svg width="123" height="42" viewBox="0 0 123 42" fill="none" xmlns="http://www.w3.org/2000/svg">
<path fill-rule="evenodd" clip-rule="evenodd" d="M39.9801 12.0296C38.637 12.0296 37.3425 12.1985 36.8154 12.3412C36.0481 12.557 35.8567 12.8928 35.7123 13.589L32.6676 27.6421C32.6619 27.6762 32.6561 27.7096 32.6504 27.7424C32.6085 27.9861 32.572 28.198 32.572 28.4095C32.572 29.1057 33.0278 29.5599 33.7707 29.5599C34.5867 29.5599 34.9224 29.0326 35.0895 28.2164L35.9524 24.2119C36.5509 24.2832 37.3425 24.3563 38.4699 24.3563C43.4336 24.3563 46.5253 21.671 46.5253 17.6178C46.5253 14.0676 44.0547 12.0296 39.9801 12.0296ZM38.3499 22.0539C37.5826 22.0539 36.9824 22.0295 36.4326 21.9582L38.0385 14.4992C38.5413 14.4278 39.2859 14.3304 40.0532 14.3304C42.6907 14.3304 44.0339 15.5782 44.0339 17.6404C44.0321 20.2788 42.1131 22.0539 38.3499 22.0539Z" fill="white"/>
<path d="M118.089 24.9306C117.682 24.9306 117.418 25.1708 116.915 25.7225C116.027 26.6344 115.476 27.1374 114.782 27.1374C114.159 27.1374 113.823 26.6344 113.823 25.8182C113.823 25.3622 113.919 24.8106 114.039 24.2119L114.926 20.0386H117.588C118.427 20.0386 118.931 19.5583 118.931 18.6951C118.931 18.2147 118.62 17.8562 117.901 17.8562H115.405L115.836 15.914L115.843 15.8738C115.889 15.6022 115.932 15.3511 115.932 15.1222C115.932 14.4504 115.476 13.9701 114.733 13.9701C113.941 13.9701 113.583 14.4974 113.414 15.3136L112.863 17.8562H111.735C110.872 17.8562 110.37 18.3366 110.37 19.1998C110.37 19.6801 110.705 20.0386 111.424 20.0386H112.407L111.52 24.1632C111.424 24.6191 111.304 25.3622 111.304 26.1297C111.304 28.0719 112.311 29.4868 114.469 29.4868C115.716 29.4868 116.817 28.8638 117.658 28.1189C118.474 27.4002 119.072 26.5126 119.072 25.9365C119.072 25.3866 118.641 24.9306 118.089 24.9306Z" fill="white"/>
<path d="M61.7243 12.2925C62.4672 12.2925 62.9474 12.7484 62.9474 13.4445C62.9474 13.6091 62.9139 13.7728 62.8771 13.9526C62.8603 14.0351 62.8427 14.1211 62.8273 14.212L59.8314 28.1433C59.6626 28.9595 59.3042 29.4868 58.4882 29.4868C57.7697 29.4868 57.2895 29.0326 57.2895 28.3365C57.2895 28.0963 57.3382 27.8561 57.4096 27.569L60.4055 13.636C60.5743 12.8198 60.9327 12.2925 61.7243 12.2925Z" fill="white"/>
<path fill-rule="evenodd" clip-rule="evenodd" d="M105.742 17.6161C101.905 17.6161 99.2922 21.4291 99.2922 25.0507C99.2922 25.1186 99.2939 25.1865 99.2957 25.2526C98.6937 26.1663 97.9247 27.113 97.3975 27.113C97.0148 27.113 96.8704 26.7528 96.8704 26.2011C96.8704 25.5293 97.0617 24.4016 97.2775 23.4183L99.2678 14.2085C99.2736 14.1743 99.2794 14.1408 99.2851 14.1078C99.3271 13.8641 99.3635 13.6526 99.3635 13.4411C99.3635 12.7449 98.9077 12.289 98.1648 12.289C97.3488 12.289 97.0148 12.8163 96.846 13.6325L95.7673 18.6202C95.1914 18.0216 94.3511 17.6126 93.081 17.6126C90.5339 17.6126 87.9712 19.5739 86.9725 22.583C85.873 25.4266 84.89 27.1095 84.114 27.1095C83.827 27.1095 83.6582 26.8694 83.6582 26.4621C83.6582 25.4742 84.114 23.3145 84.4351 21.7931L84.4352 21.7926C84.5038 21.4676 84.5663 21.1717 84.6168 20.9227C84.6296 20.8521 84.6416 20.7871 84.6527 20.7266L84.6531 20.7246C84.7248 20.3352 84.7612 20.1374 84.7612 19.8681C84.7612 18.8134 83.011 17.5656 80.7336 17.5656C78.0995 17.5656 75.7142 19.2346 74.5189 21.7128C72.7426 24.8523 71.1124 27.1095 70.3051 27.1095C69.9449 27.1095 69.8249 26.6536 69.7292 26.222L69.1325 22.9171L72.8 19.9203C73.1358 19.6331 73.5672 19.2241 73.5672 18.6968C73.5672 18.0494 73.1358 17.6178 72.4886 17.6178C72.0084 17.6178 71.6012 17.905 71.1941 18.2409L65.6807 22.797L67.5266 14.212C67.5418 14.1226 67.5591 14.0378 67.5758 13.9562C67.6128 13.7754 67.6467 13.61 67.6467 13.4445C67.6467 12.7484 67.1665 12.2924 66.4236 12.2924C65.6319 12.2924 65.2735 12.8198 65.1048 13.636L62.1088 27.569C62.0375 27.8561 61.9888 28.0963 61.9888 28.3365C61.9888 29.0326 62.469 29.4868 63.1875 29.4868C64.0035 29.4868 64.3619 28.9595 64.5306 28.1433L64.9151 26.3455L67.1682 24.5234L67.7197 27.3044C67.9355 28.4078 68.5113 29.4868 69.9971 29.4868C71.476 29.4868 72.6399 28.1363 73.8056 26.3107C74.1588 28.2233 75.5193 29.4868 77.407 29.4868C79.3017 29.4868 80.5961 28.3591 81.4347 26.8485V26.8972C81.4347 28.4565 82.2263 29.4868 83.6164 29.4868C84.8743 29.4868 85.9182 28.728 86.8508 27.1165C87.3797 28.5209 88.5627 29.4868 90.2086 29.4868C92.1502 29.4868 93.5403 28.3121 94.4277 26.6814V26.8259C94.4277 28.5523 95.2906 29.4886 96.7051 29.4886C97.9543 29.4886 99.0156 28.7628 99.922 27.5829C100.611 28.7628 101.846 29.4886 103.515 29.4886C107.351 29.4886 109.964 25.6755 109.964 22.0295C109.962 19.4626 108.404 17.6161 105.742 17.6161ZM81.8401 22.4855C81.1441 25.4823 79.6583 27.1861 77.9794 27.1861C76.852 27.1861 76.2292 26.3229 76.2292 25.0281C76.2292 22.4855 78.0751 19.7515 80.5439 19.7515C81.2868 19.7515 81.8627 19.9673 82.3655 20.2788L81.8401 22.4855ZM95.1932 21.2151C94.4259 24.741 92.6757 27.1861 90.7584 27.1861C89.704 27.1861 89.0795 26.3699 89.0795 25.0281C89.0795 22.4629 90.8541 19.8002 93.2272 19.8002C94.1388 19.8002 94.833 20.1117 95.3376 20.5189L95.1932 21.2151ZM103.8 27.1861C102.41 27.1861 101.834 26.1785 101.834 24.908C101.834 22.5812 103.44 19.9203 105.455 19.9203C106.845 19.9203 107.421 20.9279 107.421 22.1983C107.421 24.5478 105.815 27.1861 103.8 27.1861Z" fill="white"/>
<path fill-rule="evenodd" clip-rule="evenodd" d="M46.0451 25.0507C46.0451 21.4291 48.6584 17.6161 52.4946 17.6161C55.1548 17.6161 56.7137 19.4625 56.7137 22.0278C56.7137 25.6737 54.1005 29.4868 50.2642 29.4868C47.604 29.4868 46.0451 27.6403 46.0451 25.0507ZM48.587 24.908C48.587 26.1784 49.1629 27.1861 50.553 27.1861C52.566 27.1861 54.1718 24.5478 54.1736 22.1983C54.1736 20.9279 53.5977 19.9202 52.2076 19.9202C50.1929 19.9202 48.587 22.5812 48.587 24.908Z" fill="white"/>
<path d="M20.3113 10.9419C20.3113 12.3635 18.3305 13.5159 15.887 13.5159C13.4435 13.5159 11.4626 12.3635 11.4626 10.9419C11.4626 9.5204 13.4435 8.36801 15.887 8.36801C18.3305 8.36801 20.3113 9.5204 20.3113 10.9419Z" fill="#E6007A"/>
<path d="M20.3113 30.3361C20.3113 31.7576 18.3305 32.91 15.887 32.91C13.4435 32.91 11.4626 31.7576 11.4626 30.3361C11.4626 28.9145 13.4435 27.7621 15.887 27.7621C18.3305 27.7621 20.3113 28.9145 20.3113 30.3361Z" fill="#E6007A"/>
<path d="M9.72127 17.0788C10.943 14.9622 10.9351 12.6697 9.70356 11.9584C8.47203 11.2471 6.48325 12.3865 5.26149 14.5032C4.03974 16.6198 4.04767 18.9123 5.2792 19.6236C6.51074 20.3349 8.49952 19.1955 9.72127 17.0788Z" fill="#E6007A"/>
<path d="M26.4943 21.6551C27.725 22.3659 27.7323 24.658 26.5105 26.7747C25.2888 28.8914 23.3007 30.0311 22.07 29.3203C20.8393 28.6096 20.832 26.3175 22.0538 24.2008C23.2755 22.0841 25.2636 20.9444 26.4943 21.6551Z" fill="#E6007A"/>
<path d="M9.70436 29.3198C10.9359 28.6085 10.9438 26.316 9.72207 24.1993C8.50032 22.0826 6.51154 20.9433 5.28 21.6546C4.04847 22.3658 4.04054 24.6583 5.26229 26.775C6.48404 28.8917 8.47282 30.031 9.70436 29.3198Z" fill="#E6007A"/>
<path d="M26.5117 14.5046C27.7335 16.6213 27.7262 18.9134 26.4955 19.6241C25.2648 20.3349 23.2767 19.1952 22.055 17.0785C20.8332 14.9618 20.8405 12.6697 22.0712 11.9589C23.3019 11.2482 25.29 12.3879 26.5117 14.5046Z" fill="#E6007A"/>
</svg>
