<svg width="107" height="36" viewBox="0 0 107 36" fill="none" xmlns="http://www.w3.org/2000/svg">
<path d="M27.4556 8.22994C27.8685 7.55814 28.6003 7.14948 29.3885 7.14948C30.6412 7.14948 31.6562 8.16446 31.6562 9.41652V26.1656C31.655 27.4176 30.6394 28.432 29.3873 28.4314H28.9248C28.2584 28.4308 27.6253 28.1374 27.1943 27.6286L13.9595 11.7812C13.9261 11.7406 13.8758 11.7175 13.8237 11.7175C13.7254 11.7175 13.646 11.7963 13.646 11.8946V23.7888C13.6454 23.8331 13.6612 23.8761 13.6909 23.9095C13.7563 23.9822 13.8685 23.9889 13.9413 23.9234L18.3202 20.1254C18.4809 19.9872 18.7143 19.9726 18.8907 20.0902C19.1084 20.2351 19.1671 20.5286 19.0223 20.7463L14.5736 27.351C14.1608 28.0228 13.429 28.4314 12.6407 28.4314C11.3887 28.4314 10.3737 27.4164 10.3737 26.1644V9.41652C10.3737 8.16446 11.3887 7.14948 12.6407 7.14948H13.1033C13.7697 7.15008 14.4026 7.44354 14.8338 7.95225L28.0704 23.7967C28.1038 23.8373 28.1535 23.8603 28.2062 23.8603C28.3045 23.8603 28.3838 23.7815 28.3838 23.6833V11.7921C28.3838 11.7478 28.3681 11.7048 28.3384 11.6714C28.273 11.5987 28.1607 11.592 28.088 11.6575L23.7091 15.4555C23.5484 15.5937 23.315 15.6083 23.1385 15.4907C22.9209 15.3458 22.8621 15.0523 23.007 14.8346L27.4556 8.22994Z" fill="white"/>
<path d="M71.1703 15.062C71.1703 12.2462 74.3378 10.1053 78.0043 10.1053L78.003 10.1047C82.1096 10.1047 84.544 12.3632 84.544 15.7653V24.6528C84.544 24.9166 84.3385 25.1221 84.0747 25.1221H81.9629C81.6986 25.1221 81.5815 24.8584 81.7282 24.6528L82.6081 23.274C82.7548 23.0691 82.8135 22.8047 82.6377 22.6289C82.4328 22.4234 82.1982 22.4234 81.9635 22.6289L80.526 23.861C79.5582 24.6819 78.0036 25.3859 76.1853 25.3859C73.3403 25.3859 70.8472 24.0077 70.8472 21.3678V20.9573C70.8472 18.3762 73.6339 16.6166 76.3908 16.6166H79.6461C79.8814 16.6166 80.1451 16.7342 80.1742 16.9689C80.2331 17.2617 80.1154 17.5261 79.7929 17.614L76.6545 18.4647C74.4845 18.9631 73.9564 19.8137 73.9564 20.8111C73.9564 21.9553 75.0417 22.6592 76.9189 22.6592C79.3242 22.6592 81.2602 21.3393 81.2602 18.729V16.177C81.2602 14.0652 79.9105 12.8331 77.9163 12.8331C76.2446 12.8331 74.6901 13.7717 74.4554 15.062C74.4257 15.2966 74.2498 15.4725 74.0152 15.4725H71.6397C71.3759 15.4725 71.1703 15.2966 71.1703 15.062Z" fill="white"/>
<path d="M61.6383 10.1053C57.0922 10.1053 54.1884 12.892 54.1884 16.6754V18.7581C54.1884 22.7471 57.0922 25.475 61.6383 25.475C65.6565 25.475 68.4722 23.3923 68.7657 20.5765C68.7954 20.283 68.5898 20.0781 68.2964 20.0781H66.0087C65.8032 20.0781 65.6273 20.1957 65.5685 20.4007C65.275 21.3393 63.8968 22.7471 61.6383 22.7471C59.3797 22.7471 57.2679 21.1046 57.297 18.7581L57.3268 16.1479C57.3559 14.1828 59.4095 12.8338 61.6383 12.8338C63.6622 12.8338 65.6273 13.9779 65.8322 15.8551C65.8493 16.0721 65.7001 16.268 65.4861 16.3092L58.9098 17.5855C58.6461 17.6443 58.4406 17.879 58.4406 18.1718V18.2009C58.4406 18.4647 58.7044 18.6993 59.0857 18.6993H68.5305C68.7899 18.6993 68.9997 18.4889 68.9997 18.23V16.3826C68.9997 12.8926 65.9784 10.1059 61.6377 10.1059L61.6383 10.1053Z" fill="white"/>
<path d="M46.4753 10.1641C44.862 10.1641 43.6888 10.5455 42.6919 11.4253L40.9318 12.9502C40.785 13.0678 40.4916 13.1557 40.2866 12.9793C40.0811 12.8034 40.052 12.5688 40.2279 12.3341L41.1664 10.9263C41.3131 10.7207 41.1961 10.457 40.9318 10.457H38.6732C38.4095 10.457 38.2039 10.6625 38.2039 10.9263V24.6534C38.2039 24.9172 38.4095 25.1227 38.6732 25.1227H41.0196C41.2834 25.1227 41.4889 24.9172 41.4889 24.6534V16.9101C41.4889 13.3613 44.4514 12.804 45.5659 12.804C47.9414 12.804 48.7922 14.5054 48.7922 15.7956V24.6534C48.7922 24.9172 48.9976 25.1227 49.2614 25.1227H51.6079C51.8716 25.1227 52.0772 24.9172 52.0772 24.6534V15.5022C52.0772 12.2171 49.9357 10.1641 46.4753 10.1641Z" fill="white"/>
<path d="M97.215 10.4576H93.9299C92.7864 10.4576 91.6713 11.1615 90.8795 11.8364L89.5892 12.9508C89.4425 13.0684 89.1781 13.1563 89.0023 13.0096C88.7967 12.8629 88.7088 12.5694 88.8853 12.3348L89.8239 10.9269C89.9706 10.7213 89.8536 10.4576 89.5892 10.4576H87.3895C87.1258 10.4576 86.9202 10.6631 86.9202 10.9269V24.654C86.9202 24.9178 87.1258 25.1233 87.3895 25.1233H89.7948C90.0585 25.1233 90.2641 24.9178 90.2641 24.654V17.6146C90.2641 14.5933 91.4962 13.2442 94.1652 13.2442H97.2156C97.4793 13.2442 97.6849 13.0387 97.6849 12.7749V10.9269C97.6849 10.6631 97.4793 10.4576 97.215 10.4576Z" fill="white"/>
</svg>
