<svg width="123" height="42" viewBox="0 0 123 42" fill="none" xmlns="http://www.w3.org/2000/svg">
<path fill-rule="evenodd" clip-rule="evenodd" d="M39.9796 12.8074C38.6365 12.8074 37.342 12.9762 36.8149 13.1189C36.0476 13.3347 35.8562 13.6706 35.7118 14.3667L32.6672 28.4198C32.6614 28.4539 32.6556 28.4873 32.65 28.5202C32.608 28.7638 32.5715 28.9757 32.5715 29.1873C32.5715 29.8834 33.0273 30.3376 33.7702 30.3376C34.5862 30.3376 34.922 29.8103 35.089 28.9941L35.9519 24.9896C36.5504 25.061 37.342 25.1341 38.4694 25.1341C43.4331 25.1341 46.5248 22.4488 46.5248 18.3956C46.5248 14.8453 44.0543 12.8074 39.9796 12.8074ZM38.3494 22.8316C37.5821 22.8316 36.9819 22.8073 36.4321 22.7359L38.038 15.2769C38.5408 15.2056 39.2854 15.1081 40.0527 15.1081C42.6902 15.1081 44.0334 16.3559 44.0334 18.4182C44.0316 21.0565 42.1126 22.8316 38.3494 22.8316Z" fill="white"/>
<path d="M118.089 25.7084C117.682 25.7084 117.417 25.9485 116.914 26.5002C116.027 27.4122 115.475 27.9151 114.781 27.9151C114.158 27.9151 113.823 27.4122 113.823 26.5959C113.823 26.14 113.918 25.5883 114.038 24.9896L114.926 20.8163H117.588C118.426 20.8163 118.931 20.336 118.931 19.4728C118.931 18.9925 118.619 18.634 117.901 18.634H115.404L115.836 16.6918L115.842 16.6516C115.889 16.3799 115.931 16.1288 115.931 15.8999C115.931 15.2282 115.475 14.7478 114.733 14.7478C113.941 14.7478 113.583 15.2752 113.414 16.0914L112.862 18.634H111.735C110.872 18.634 110.369 19.1143 110.369 19.9775C110.369 20.4578 110.705 20.8163 111.423 20.8163H112.406L111.519 24.9409C111.423 25.3969 111.303 26.14 111.303 26.9075C111.303 28.8497 112.311 30.2645 114.468 30.2645C115.716 30.2645 116.817 29.6415 117.657 28.8967C118.473 28.1779 119.072 27.2903 119.072 26.7143C119.072 26.1643 118.64 25.7084 118.089 25.7084Z" fill="white"/>
<path d="M61.7238 13.0702C62.4667 13.0702 62.9469 13.5262 62.9469 14.2223C62.9469 14.3868 62.9134 14.5506 62.8767 14.7303C62.8598 14.8129 62.8422 14.8988 62.8269 14.9898L59.8309 28.921C59.6621 29.7372 59.3037 30.2646 58.4878 30.2646C57.7692 30.2646 57.289 29.8103 57.289 29.1142C57.289 28.874 57.3377 28.6339 57.4091 28.3467L60.405 14.4137C60.5738 13.5975 60.9322 13.0702 61.7238 13.0702Z" fill="white"/>
<path fill-rule="evenodd" clip-rule="evenodd" d="M105.741 18.3938C101.905 18.3938 99.2917 22.2069 99.2917 25.8285C99.2917 25.8963 99.2934 25.9642 99.2952 26.0303C98.6932 26.944 97.9242 27.8908 97.397 27.8908C97.0143 27.8908 96.8699 27.5305 96.8699 26.9788C96.8699 26.3071 97.0613 25.1793 97.277 24.1961L99.2673 14.9863C99.2731 14.9521 99.2789 14.9185 99.2846 14.8855C99.3266 14.6419 99.363 14.4303 99.363 14.2188C99.363 13.5227 98.9072 13.0667 98.1643 13.0667C97.3483 13.0667 97.0143 13.594 96.8455 14.4102L95.7668 19.398C95.1909 18.7993 94.3506 18.3903 93.0806 18.3903C90.5335 18.3903 87.9707 20.3517 86.9721 23.3607C85.8725 26.2044 84.8895 27.8873 84.1135 27.8873C83.8265 27.8873 83.6577 27.6471 83.6577 27.2399C83.6577 26.252 84.1135 24.0922 84.4347 22.5709L84.4348 22.5703C84.5034 22.2453 84.5658 21.9495 84.6163 21.7004C84.6292 21.6298 84.6411 21.5648 84.6522 21.5044L84.6526 21.5024C84.7243 21.113 84.7607 20.9151 84.7607 20.6458C84.7607 19.5912 83.0105 18.3434 80.7331 18.3434C78.099 18.3434 75.7137 20.0123 74.5184 22.4905C72.7421 25.6301 71.1119 27.8873 70.3046 27.8873C69.9445 27.8873 69.8244 27.4313 69.7287 26.9997L69.132 23.6948L72.7995 20.698C73.1353 20.4109 73.5668 20.0019 73.5668 19.4746C73.5668 18.8272 73.1353 18.3956 72.4881 18.3956C72.0079 18.3956 71.6008 18.6827 71.1936 19.0186L65.6802 23.5748L67.5261 14.9898C67.5413 14.9004 67.5586 14.8156 67.5753 14.7339C67.6123 14.5531 67.6462 14.3877 67.6462 14.2223C67.6462 13.5261 67.166 13.0702 66.4231 13.0702C65.6315 13.0702 65.273 13.5975 65.1043 14.4137L62.1083 28.3467C62.037 28.6339 61.9883 28.874 61.9883 29.1142C61.9883 29.8103 62.4685 30.2646 63.187 30.2646C64.003 30.2646 64.3614 29.7372 64.5301 28.921L64.9146 27.1233L67.1677 25.3012L67.7192 28.0822C67.935 29.1856 68.5109 30.2646 69.9967 30.2646C71.4755 30.2646 72.6394 28.9141 73.8051 27.0885C74.1583 29.0011 75.5188 30.2646 77.4065 30.2646C79.3012 30.2646 80.5956 29.1368 81.4342 27.6262V27.675C81.4342 29.2343 82.2258 30.2646 83.6159 30.2646C84.8738 30.2646 85.9177 29.5058 86.8503 27.8942C87.3792 29.2987 88.5622 30.2646 90.2081 30.2646C92.1497 30.2646 93.5399 29.0898 94.4272 27.4592V27.6036C94.4272 29.33 95.2901 30.2663 96.7046 30.2663C97.9538 30.2663 99.0151 29.5406 99.9215 28.3606C100.61 29.5406 101.846 30.2663 103.514 30.2663C107.351 30.2663 109.964 26.4532 109.964 22.8073C109.962 20.2403 108.403 18.3938 105.741 18.3938ZM81.8396 23.2632C81.1437 26.2601 79.6579 27.9638 77.9789 27.9638C76.8515 27.9638 76.2287 27.1006 76.2287 25.8058C76.2287 23.2632 78.0746 20.5292 80.5434 20.5292C81.2863 20.5292 81.8622 20.745 82.365 21.0565L81.8396 23.2632ZM95.1927 21.9928C94.4254 25.5187 92.6752 27.9638 90.7579 27.9638C89.7036 27.9638 89.079 27.1476 89.079 25.8058C89.079 23.2406 90.8536 20.5779 93.2267 20.5779C94.1384 20.5779 94.8326 20.8894 95.3371 21.2967L95.1927 21.9928ZM103.8 27.9638C102.409 27.9638 101.834 26.9562 101.834 25.6858C101.834 23.359 103.439 20.698 105.454 20.698C106.844 20.698 107.42 21.7057 107.42 22.9761C107.42 25.3255 105.814 27.9638 103.8 27.9638Z" fill="white"/>
<path fill-rule="evenodd" clip-rule="evenodd" d="M46.0447 25.8284C46.0447 22.2068 48.6579 18.3938 52.4942 18.3938C55.1543 18.3938 56.7132 20.2403 56.7132 22.8055C56.7132 26.4515 54.1 30.2645 50.2637 30.2645C47.6035 30.2645 46.0447 28.418 46.0447 25.8284ZM48.5865 25.6857C48.5865 26.9562 49.1624 27.9638 50.5525 27.9638C52.5655 27.9638 54.1713 25.3255 54.1731 22.9761C54.1731 21.7056 53.5972 20.698 52.2071 20.698C50.1924 20.698 48.5865 23.3589 48.5865 25.6857Z" fill="white"/>
<path d="M20.3108 11.7197C20.3108 13.1412 18.33 14.2936 15.8865 14.2936C13.443 14.2936 11.4621 13.1412 11.4621 11.7197C11.4621 10.2981 13.443 9.14575 15.8865 9.14575C18.33 9.14575 20.3108 10.2981 20.3108 11.7197Z" fill="#E6007A"/>
<path d="M20.3108 31.1138C20.3108 32.5353 18.33 33.6877 15.8865 33.6877C13.443 33.6877 11.4621 32.5353 11.4621 31.1138C11.4621 29.6923 13.443 28.5399 15.8865 28.5399C18.33 28.5399 20.3108 29.6923 20.3108 31.1138Z" fill="#E6007A"/>
<path d="M9.72078 17.8566C10.9425 15.7399 10.9346 13.4474 9.70307 12.7361C8.47154 12.0249 6.48276 13.1642 5.26101 15.2809C4.03925 17.3976 4.04718 19.6901 5.27872 20.4013C6.51025 21.1126 8.49903 19.9733 9.72078 17.8566Z" fill="#E6007A"/>
<path d="M26.4938 22.4329C27.7245 23.1436 27.7318 25.4358 26.51 27.5524C25.2883 29.6691 23.3002 30.8088 22.0695 30.0981C20.8388 29.3873 20.8315 27.0952 22.0533 24.9785C23.275 22.8618 25.2631 21.7221 26.4938 22.4329Z" fill="#E6007A"/>
<path d="M9.70387 30.0975C10.9354 29.3863 10.9433 27.0938 9.72158 24.9771C8.49983 22.8604 6.51105 21.7211 5.27952 22.4323C4.04798 23.1436 4.04005 25.4361 5.2618 27.5527C6.48356 29.6694 8.47234 30.8088 9.70387 30.0975Z" fill="#E6007A"/>
<path d="M26.5112 15.2823C27.733 17.399 27.7257 19.6911 26.495 20.4019C25.2643 21.1126 23.2762 19.9729 22.0545 17.8562C20.8327 15.7396 20.84 13.4474 22.0707 12.7367C23.3014 12.0259 25.2895 13.1656 26.5112 15.2823Z" fill="#E6007A"/>
</svg>
