<svg width="114" height="39" viewBox="0 0 114 39" fill="none" xmlns="http://www.w3.org/2000/svg">
<path d="M81.6394 11.3581H83.6485V27.2214H81.6394V11.3581ZM77.6394 11.3581H79.6303V27.2214H77.6394V11.3581ZM93.1145 22.3002C93.1145 25.0763 91.3227 25.9235 89.4584 25.9235C88.0286 25.9235 87.1779 25.1844 87.1779 24.0668C87.1779 22.4444 89.4946 21.9036 93.1145 21.5611V22.3002ZM94.9245 22.8049L94.9426 20.0649C94.9788 16.73 93.567 15.2158 90.2548 15.2158C87.9743 15.2158 85.6756 16.6399 85.5127 19.1816H87.5761C87.6666 17.7214 88.6077 16.8381 90.2729 16.8381C91.7752 16.8381 92.9516 17.5412 92.9516 19.7044V19.9928C88.119 20.5156 84.9516 21.3448 84.9516 24.1209C84.9516 26.2841 86.7978 27.5099 89.024 27.5099C91.1236 27.5099 92.3363 26.8429 93.0602 25.6171C93.0783 26.1579 93.1326 26.6987 93.2231 27.2214H95.2322C94.9788 26.1038 94.9064 24.7698 94.9245 22.7869V22.8049ZM102.146 15.396C100.59 15.4501 99.4132 16.1712 98.8159 17.5051V15.4501H96.8612V27.2214H98.8521V21.0383C98.8521 18.4245 99.7752 17.433 101.621 17.433C102.001 17.451 102.363 17.4691 102.744 17.5412V15.414C102.544 15.396 102.345 15.396 102.146 15.396ZM62.5443 12.5118H60.5353V15.4501H58.671V17.0545H60.5353V24.2651C60.5353 26.7167 61.0602 27.2214 63.3226 27.2214H64.7887V25.545H63.7751C62.6348 25.545 62.5443 25.2385 62.5443 24.0307V17.0545H64.7887V15.4501H62.5443V12.5118ZM52.8973 18.1361L51.0511 17.7214C49.5488 17.3789 48.4448 16.6939 48.4448 15.2879C48.4448 13.5032 50.5986 12.9624 51.8294 12.9624C53.4222 12.9624 55.2683 13.5934 55.7932 15.414H57.9651C57.3317 12.3676 54.7977 11.0877 51.938 11.0877C49.3678 11.0877 46.1823 12.3676 46.1823 15.414C46.1823 18.0459 48.3543 19.2717 50.5443 19.7404L52.5353 20.155C54.5443 20.6237 55.9561 21.2727 55.9561 22.9672C55.9561 24.5355 54.6167 25.6351 52.2457 25.6351C49.766 25.6351 48.2638 24.4994 47.8475 22.3002H45.6574C46.0737 25.4548 48.4448 27.5099 52.1914 27.5099C55.3588 27.5099 58.2547 25.8514 58.2547 22.7509C58.2547 19.5602 55.3226 18.6408 52.8973 18.118V18.1361ZM67.214 20.2992C67.395 17.9197 69.024 16.9643 70.7797 16.9643C72.9154 16.9643 74.11 18.6228 74.1824 20.2992H67.214ZM70.7797 15.2518C67.5579 15.2518 65.0421 17.6313 65.0421 21.3628C65.0421 24.8419 67.1054 27.5099 70.834 27.5099C73.7118 27.5099 75.6122 25.8334 76.119 23.8144H74.0919C73.5851 24.9681 72.6077 25.7613 70.8521 25.7613C69.0964 25.7613 67.2683 24.5355 67.214 22.0118H76.3C76.5534 18.2622 74.4177 15.2698 70.7978 15.2698L70.7797 15.2518ZM38.9787 13.6655L17.8746 24.3732L16.0284 25.2926L12.2456 27.2214V29.5288L16.0103 27.618L19.232 25.9776L34.7977 18.082C35.4674 23.1294 31.9018 27.7622 26.8339 28.4292C26.4357 28.4833 26.0194 28.5194 25.6031 28.5194C24.0284 28.5194 22.4719 28.1047 21.0782 27.3296L20.9696 27.4017L18.9787 28.3932C24.0284 32.0526 31.1054 30.9349 34.7796 25.8875C36.1733 23.9767 36.9334 21.6693 36.9334 19.2898C36.9334 19.0013 36.9334 18.7129 36.8972 18.4245C36.8429 17.5953 37.2773 16.8201 38.0194 16.4416L38.9787 15.9368V13.6655ZM35.214 10.9795L31.9922 12.6019L16.4447 20.4975C15.775 15.4501 19.3587 10.8173 24.4266 10.1503C26.3995 9.89792 28.4085 10.2765 30.1461 11.2499L31.9922 10.3125L32.2637 10.1683C27.214 6.50892 20.137 7.6446 16.4628 12.674C15.051 14.6029 14.309 16.9103 14.309 19.2898C14.309 19.5782 14.309 19.8666 14.3271 20.155C14.3995 20.9662 13.9651 21.7594 13.223 22.138L12.2456 22.6247V24.9321L15.1053 23.4719L16.0284 23.0032L16.9515 22.5526L33.3316 14.2243L35.1778 13.2869L38.9787 11.3581V9.05067L35.214 10.9795Z" fill="white"/>
</svg>
