<svg width="1237" height="352" viewBox="0 0 1237 352" fill="none" xmlns="http://www.w3.org/2000/svg">
<path d="M145.777 351.382C120.054 351.382 96.8034 347.006 76.0255 338.252C55.4322 329.354 38.4556 316.654 25.0958 300.258C11.9205 283.683 3.54294 263.986 0 241.133L68.5337 231.267C73.3683 250.676 83.3329 265.601 98.4642 276.077C113.596 286.553 130.793 291.791 150.095 291.791C160.872 291.791 171.316 290.141 181.465 286.876C191.614 283.575 199.881 278.732 206.339 272.346C212.945 265.924 216.23 258.031 216.23 248.667C216.23 245.223 215.676 241.958 214.532 238.801C213.573 235.5 211.875 232.451 209.476 229.652C207.077 226.854 203.608 224.163 199.106 221.688C194.751 219.176 189.215 216.916 182.461 214.871L92.1902 189.075C85.4365 187.21 77.5386 184.555 68.5337 181.111C59.6763 177.667 51.0773 172.752 42.6997 166.33C34.3222 159.908 27.347 151.477 21.7004 141.001C16.2384 130.381 13.5074 116.999 13.5074 100.89C13.5074 78.2158 19.3754 59.3806 31.1114 44.3481C42.8474 29.3516 58.5323 18.1579 78.1661 10.8031C97.7999 3.44836 119.5 -0.139368 143.305 0.00413935C167.293 0.327031 188.661 4.30943 207.483 11.9512C226.305 19.6289 242.064 30.7867 254.796 45.4962C267.492 60.0264 276.681 77.8571 282.291 98.9886L211.359 110.72C208.775 99.7779 204.051 90.5575 197.113 83.0233C190.212 75.5251 181.908 69.8206 172.275 65.91C162.791 61.9994 152.826 59.8828 142.345 59.5599C132.048 59.237 122.305 60.6721 113.153 63.7934C104.148 66.7711 96.7296 71.148 90.9354 76.9242C85.2889 82.7004 82.484 89.5888 82.484 97.5534C82.484 104.908 84.8091 110.936 89.4962 115.6C94.1463 120.12 100.051 123.815 107.1 126.614C114.186 129.412 121.42 131.78 128.801 133.646L189.141 149.611C198.146 151.943 208.111 155.1 219.072 159.011C229.996 162.778 240.477 168.087 250.442 174.976C260.591 181.685 268.857 190.618 275.316 201.704C281.922 212.826 285.207 226.89 285.207 243.931C285.207 262.085 281.258 277.942 273.397 291.54C265.684 304.994 255.202 316.187 242.027 325.085C228.852 333.839 213.868 340.404 197.15 344.781C180.579 349.158 163.455 351.347 145.74 351.347L145.777 351.382Z" fill="white"/>
<path d="M436.857 291.724C457.929 291.724 473.614 284.832 483.91 271.084C494.355 257.156 499.595 239.316 499.595 217.563C499.595 195.811 494.281 177.037 483.652 163.576C473.208 150.115 457.597 143.403 436.82 143.403C422.501 143.403 410.765 146.526 401.575 152.807C392.423 159.053 385.558 167.74 381.056 178.868C376.701 189.995 374.524 202.882 374.524 217.599C374.524 240.285 379.765 258.377 390.209 271.802C400.837 285.119 416.337 291.76 436.783 291.76L436.857 291.724ZM436.857 351.346C410.617 351.346 387.625 345.639 367.844 334.224C348.063 322.81 332.6 307.087 321.528 287.057C310.604 266.884 305.105 243.695 305.105 217.599C305.105 191.503 310.752 167.919 322.008 147.89C333.264 127.716 348.801 111.994 368.582 100.723C388.363 89.4514 411.134 83.8159 436.857 83.8159C462.579 83.8159 486.088 89.5234 505.869 100.938C525.835 112.353 541.335 128.147 552.443 148.356C563.552 168.386 569.087 191.467 569.087 217.599C569.087 243.731 563.441 267.135 552.185 287.309C541.076 307.338 525.576 323.061 505.611 334.476C485.83 345.747 462.912 351.382 436.82 351.382L436.857 351.346Z" fill="white"/>
<path d="M602.986 344.29V91.0965H660.955V152.979L654.674 145.019C658.073 136.271 662.58 128.312 668.196 121.105C673.849 113.899 680.758 107.983 688.96 103.286C695.241 99.5218 702.076 96.6536 709.502 94.61C716.928 92.423 724.576 91.0965 732.445 90.6304C740.352 90.0209 748.222 90.1643 756.128 91.0965V150.648C748.887 148.461 740.426 147.744 730.746 148.533C721.251 149.142 712.642 151.258 704.884 154.879C697.162 158.321 690.622 162.91 685.302 168.718C679.982 174.347 675.955 181.051 673.221 188.867C670.487 196.54 669.12 205.216 669.12 214.896V344.29H602.912H602.986Z" fill="white"/>
<path d="M875.214 351.382C842.376 351.382 815.78 344.169 795.5 329.779C775.368 315.245 763.142 294.754 758.783 268.306L825.938 258.438C828.671 270.316 834.729 279.646 844.038 286.357C853.531 293.068 865.536 296.441 880.017 296.441C891.948 296.441 901.108 294.252 907.536 289.874C913.963 285.352 917.214 279.072 917.214 271.105C917.214 266.081 915.921 262.098 913.335 259.155C910.75 256.033 904.95 252.983 895.937 250.004C887.072 247.026 873.22 243.114 854.381 238.27C833.141 232.959 816.149 227.001 803.405 220.434C790.661 213.867 781.5 206.044 775.886 196.965C770.234 187.742 767.426 176.617 767.426 163.626C767.426 147.37 771.711 133.267 780.244 121.389C788.777 109.331 800.782 100.108 816.223 93.6846C831.848 87.1174 850.207 83.8159 871.299 83.8159C892.391 83.8159 909.863 86.8664 925.636 92.967C941.409 99.0677 954.153 107.752 963.794 119.02C973.62 130.288 979.641 143.566 981.894 158.925L914.739 170.66C913.594 161.258 909.42 153.83 902.18 148.375C894.94 142.884 885.114 139.691 872.702 138.757C860.623 137.968 850.872 139.547 843.484 143.459C836.244 147.37 832.624 153.004 832.624 160.361C832.624 164.739 834.138 168.399 837.204 171.378C840.418 174.357 846.956 177.407 856.782 180.529C866.755 183.651 881.9 187.742 902.18 192.73C921.979 197.718 937.863 203.604 949.757 210.314C961.836 216.881 970.628 224.848 976.095 234.25C981.562 243.473 984.295 254.67 984.295 267.804C984.295 293.785 974.617 314.205 955.298 329.061C935.979 343.918 909.235 351.347 875.104 351.347L875.214 351.382Z" fill="white"/>
<path d="M1104.57 301.063C1116.66 301.063 1126.83 299.018 1135.03 294.962C1143.43 290.727 1150.01 285.953 1154.85 280.641C1159.84 275.33 1163.24 270.879 1165.02 267.254C1168.42 260.363 1170.34 252.395 1170.82 243.315C1171.45 234.091 1171.78 226.41 1171.78 220.309L1191.12 225.011C1171.63 228.133 1155.81 230.789 1143.72 232.978C1131.63 235.024 1121.87 236.891 1114.48 238.613C1107.05 240.336 1100.54 242.202 1094.88 244.248C1088.45 246.761 1083.2 249.488 1079.17 252.467C1075.29 255.267 1072.4 258.425 1070.48 261.871C1068.71 265.316 1067.82 269.156 1067.82 273.356C1067.82 279.134 1069.26 284.159 1072.18 288.358C1075.25 292.414 1079.5 295.572 1085.01 297.761C1090.48 299.951 1097.03 301.063 1104.61 301.063H1104.57ZM1090.56 351.311C1071.85 351.311 1055.99 347.865 1042.94 340.974C1030.04 333.939 1020.2 324.608 1013.44 313.051C1006.82 301.315 1003.53 288.394 1003.53 274.325C1003.53 262.588 1005.38 251.857 1009.07 242.166C1012.77 232.476 1018.76 223.934 1026.97 216.576C1035.36 209.075 1046.56 202.794 1060.57 197.805C1070.26 194.36 1081.76 191.309 1095.14 188.653C1108.53 185.997 1123.68 183.485 1140.58 181.152C1157.51 178.64 1176.11 175.912 1196.41 172.933L1172.71 185.602C1172.71 170.6 1169.01 159.546 1161.58 152.511C1154.15 145.477 1141.76 141.959 1124.35 141.959C1114.66 141.959 1104.61 144.22 1094.14 148.778C1083.68 153.301 1076.32 161.376 1072.15 172.969L1012.66 154.664C1019.28 133.704 1031.66 116.656 1049.89 103.52C1068.12 90.3839 1092.92 83.8159 1124.35 83.8159C1147.38 83.8159 1167.86 87.2615 1185.76 94.1525C1203.65 101.044 1217.18 112.923 1226.39 129.828C1231.53 139.231 1234.6 148.599 1235.56 158.002C1236.52 167.406 1237 177.886 1237 189.443V344.348H1179.47V292.234L1187.68 303.037C1174.96 320.086 1161.17 332.468 1146.35 340.113C1131.67 347.614 1113.07 351.382 1090.52 351.382L1090.56 351.311Z" fill="white"/>
</svg>
