<svg width="292" height="191" viewBox="0 0 292 191" fill="none" xmlns="http://www.w3.org/2000/svg">
<g filter="url(#filter0_bddi_162_3995)">
<rect x="132.675" y="39.0061" width="117.891" height="117.891" rx="20.625" fill="#0F2A83" fill-opacity="0.29" shape-rendering="crispEdges"/>
<rect x="132.675" y="39.0061" width="117.891" height="117.891" rx="20.625" fill="url(#paint0_radial_162_3995)" shape-rendering="crispEdges"/>
<rect x="133.114" y="39.4443" width="117.014" height="117.014" rx="20.1868" stroke="white" stroke-opacity="0.13" stroke-width="0.876431" shape-rendering="crispEdges"/>
</g>
<g filter="url(#filter1_bi_162_3995)">
<rect x="132.675" y="39.0061" width="117.891" height="117.891" rx="20.625" fill="#0F2A83" fill-opacity="0.29"/>
<rect x="132.675" y="39.0061" width="117.891" height="117.891" rx="20.625" fill="url(#paint1_radial_162_3995)"/>
<rect x="133.114" y="39.4443" width="117.014" height="117.014" rx="20.1868" stroke="white" stroke-opacity="0.13" stroke-width="0.876431"/>
</g>
<g style="mix-blend-mode:plus-lighter" filter="url(#filter2_i_162_3995)">
<rect x="132.675" y="39.0061" width="117.891" height="117.891" rx="20.625" fill="#0F2A83" fill-opacity="0.29"/>
<rect x="132.675" y="39.0061" width="117.891" height="117.891" rx="20.625" fill="url(#paint2_radial_162_3995)"/>
</g>
<g style="mix-blend-mode:overlay">
<path d="M178.001 88.6471C178.024 88.4451 178.299 88.4451 178.323 88.6471L178.513 90.3393C178.756 92.5232 180.378 94.2476 182.436 94.5081L184.028 94.7101C184.219 94.7335 184.219 95.0263 184.028 95.0497L182.436 95.2517C180.378 95.5123 178.756 97.2337 178.513 99.4206L178.323 101.113C178.299 101.315 178.024 101.315 178.001 101.113L177.81 99.4206C177.567 97.2366 175.945 95.5123 173.887 95.2517L172.295 95.0497C172.104 95.0263 172.104 94.7335 172.295 94.7101L173.887 94.5081C175.945 94.2476 177.567 92.5262 177.81 90.3393L178.001 88.6471Z" fill="white"/>
<path d="M206.917 105.943C200.427 106.385 195.043 101.259 195.043 94.8946C195.043 88.5301 200.014 83.8138 206.124 83.8138C212.234 83.8138 217.618 89.1946 217.173 95.6851C216.792 101.13 212.392 105.563 206.914 105.94L206.917 105.943ZM178.707 105.943C172.026 106.356 166.517 100.846 166.929 94.1686C167.278 88.6618 171.742 84.1651 177.252 83.8167C183.965 83.4039 189.475 88.9136 189.062 95.6236C188.714 101.13 184.217 105.595 178.71 105.943H178.707ZM207.043 77.8649C201.472 77.5809 196.437 79.9552 193.143 83.8489C192.572 84.5134 191.527 84.5134 190.991 83.8489C187.794 80.0811 183.014 77.739 177.694 77.8356C168.449 77.9937 160.946 85.623 160.913 94.8654C160.913 97.8105 161.642 100.595 162.971 103.001C163.478 103.92 163.32 105.059 162.591 105.788L162.225 106.154C160.896 107.483 160.896 109.606 162.225 110.935C163.554 112.264 165.676 112.264 167.006 110.935L167.468 110.475C168.197 109.746 169.272 109.588 170.191 110.062C172.533 111.266 175.162 111.93 177.949 111.93C183.142 111.93 187.794 109.588 190.93 105.917C191.501 105.252 192.546 105.252 193.082 105.917C196.217 109.588 200.869 111.93 206.062 111.93C215.72 111.93 223.476 103.92 223.095 94.2037C222.84 85.4678 215.782 78.3128 207.043 77.8678V77.8649Z" fill="#D9D9D9"/>
<path d="M206.361 101.001C207.18 101.001 207.994 100.84 208.753 100.524C209.511 100.211 210.202 99.7485 210.781 99.1688C211.361 98.5891 211.824 97.8982 212.137 97.14C212.45 96.3818 212.614 95.5679 212.614 94.7482C212.614 93.9284 212.453 93.1146 212.137 92.3563C211.824 91.5981 211.361 90.9072 210.781 90.3275C210.202 89.7479 209.511 89.2853 208.753 88.9721C207.994 88.6588 207.18 88.4949 206.361 88.4949V100.999V101.001Z" fill="white"/>
</g>
<g style="mix-blend-mode:overlay">
<path d="M206.917 105.943C200.427 106.385 195.043 101.259 195.043 94.8946C195.043 88.5301 200.014 83.8138 206.124 83.8138C212.234 83.8138 217.618 89.1946 217.173 95.6851C216.792 101.13 212.392 105.563 206.914 105.94L206.917 105.943ZM178.707 105.943C172.026 106.356 166.517 100.846 166.929 94.1686C167.278 88.6618 171.742 84.1651 177.252 83.8167C183.965 83.4039 189.475 88.9136 189.062 95.6236C188.714 101.13 184.217 105.595 178.71 105.943H178.707ZM207.043 77.8649C201.472 77.5809 196.437 79.9552 193.143 83.8489C192.572 84.5134 191.527 84.5134 190.991 83.8489C187.794 80.0811 183.014 77.739 177.694 77.8356C168.449 77.9937 160.946 85.623 160.913 94.8654C160.913 97.8105 161.642 100.595 162.971 103.001C163.478 103.92 163.32 105.059 162.591 105.788L162.225 106.154C160.896 107.483 160.896 109.606 162.225 110.935C163.554 112.264 165.676 112.264 167.006 110.935L167.468 110.475C168.197 109.746 169.272 109.588 170.191 110.062C172.533 111.266 175.162 111.93 177.949 111.93C183.142 111.93 187.794 109.588 190.93 105.917C191.501 105.252 192.546 105.252 193.082 105.917C196.217 109.588 200.869 111.93 206.062 111.93C215.72 111.93 223.476 103.92 223.095 94.2037C222.84 85.4678 215.782 78.3128 207.043 77.8678V77.8649Z" fill="#D9D9D9"/>
</g>
<path d="M178.002 88.6469C178.026 88.4449 178.301 88.4449 178.324 88.6469L178.515 90.339C178.758 92.523 180.379 94.2473 182.437 94.5079L184.03 94.7099C184.22 94.7333 184.22 95.0261 184.03 95.0495L182.437 95.2515C180.379 95.512 178.758 97.2335 178.515 99.4204L178.324 101.112C178.301 101.314 178.026 101.314 178.002 101.112L177.812 99.4204C177.569 97.2364 175.947 95.512 173.889 95.2515L172.296 95.0495C172.106 95.0261 172.106 94.7333 172.296 94.7099L173.889 94.5079C175.947 94.2473 177.569 92.5259 177.812 90.339L178.002 88.6469Z" fill="white"/>
<path d="M206.362 101.001C207.182 101.001 207.996 100.84 208.754 100.524C209.512 100.211 210.203 99.7485 210.783 99.1688C211.363 98.5891 211.825 97.8982 212.139 97.14C212.452 96.3818 212.616 95.5679 212.616 94.7482C212.616 93.9284 212.455 93.1146 212.139 92.3563C211.825 91.5981 211.363 90.9072 210.783 90.3275C210.203 89.7479 209.512 89.2853 208.754 88.9721C207.996 88.6588 207.182 88.4949 206.362 88.4949V100.999V101.001Z" fill="white"/>
<path d="M261.997 15.9115C262.028 15.6434 262.4 15.6434 262.432 15.9115L262.689 18.1567C263.017 21.0546 265.208 23.3426 267.988 23.6883L270.14 23.9563C270.397 23.9874 270.397 24.3759 270.14 24.407L267.988 24.675C265.208 25.0207 263.017 27.3048 262.689 30.2066L262.432 32.4518C262.4 32.7198 262.028 32.7198 261.997 32.4518L261.74 30.2066C261.411 27.3087 259.221 25.0207 256.44 24.675L254.289 24.407C254.032 24.3759 254.032 23.9874 254.289 23.9563L256.44 23.6883C259.221 23.3426 261.411 21.0585 261.74 18.1567L261.997 15.9115Z" fill="white"/>
<path d="M129.739 155.594C129.756 155.449 129.95 155.449 129.966 155.594L130.1 156.81C130.272 158.38 131.415 159.619 132.865 159.806L133.988 159.952C134.122 159.968 134.122 160.179 133.988 160.196L132.865 160.341C131.415 160.528 130.272 161.765 130.1 163.337L129.966 164.553C129.95 164.699 129.756 164.699 129.739 164.553L129.605 163.337C129.434 161.767 128.291 160.528 126.84 160.341L125.718 160.196C125.584 160.179 125.584 159.968 125.718 159.952L126.84 159.806C128.291 159.619 129.434 158.382 129.605 156.81L129.739 155.594Z" fill="white"/>
<path d="M272.338 39.115C272.355 38.9698 272.549 38.9698 272.565 39.115L272.699 40.3312C272.871 41.9009 274.014 43.1402 275.464 43.3274L276.587 43.4726C276.721 43.4895 276.721 43.6999 276.587 43.7167L275.464 43.8619C274.014 44.0492 272.871 45.2864 272.699 46.8582L272.565 48.0743C272.549 48.2195 272.355 48.2195 272.338 48.0743L272.204 46.8582C272.033 45.2885 270.89 44.0492 269.439 43.8619L268.317 43.7167C268.183 43.6999 268.183 43.4895 268.317 43.4726L269.439 43.3274C270.89 43.1402 272.033 41.903 272.204 40.3312L272.338 39.115Z" fill="white"/>
<g filter="url(#filter3_f_162_3995)">
<path d="M261.997 15.9115C262.028 15.6434 262.4 15.6434 262.432 15.9115L262.689 18.1567C263.017 21.0546 265.208 23.3426 267.988 23.6883L270.14 23.9563C270.397 23.9874 270.397 24.3759 270.14 24.407L267.988 24.675C265.208 25.0207 263.017 27.3048 262.689 30.2066L262.432 32.4518C262.4 32.7198 262.028 32.7198 261.997 32.4518L261.74 30.2066C261.411 27.3087 259.221 25.0207 256.44 24.675L254.289 24.407C254.032 24.3759 254.032 23.9874 254.289 23.9563L256.44 23.6883C259.221 23.3426 261.411 21.0585 261.74 18.1567L261.997 15.9115Z" fill="white"/>
</g>
<g filter="url(#filter4_f_162_3995)">
<path d="M129.739 155.594C129.756 155.449 129.95 155.449 129.966 155.594L130.1 156.81C130.272 158.38 131.415 159.619 132.865 159.806L133.988 159.952C134.122 159.968 134.122 160.179 133.988 160.196L132.865 160.341C131.415 160.528 130.272 161.765 130.1 163.337L129.966 164.553C129.95 164.699 129.756 164.699 129.739 164.553L129.605 163.337C129.434 161.767 128.291 160.528 126.84 160.341L125.718 160.196C125.584 160.179 125.584 159.968 125.718 159.952L126.84 159.806C128.291 159.619 129.434 158.382 129.605 156.81L129.739 155.594Z" fill="white"/>
</g>
<g filter="url(#filter5_f_162_3995)">
<path d="M272.338 39.115C272.355 38.9698 272.549 38.9698 272.565 39.115L272.699 40.3312C272.871 41.9009 274.014 43.1402 275.464 43.3274L276.587 43.4726C276.721 43.4895 276.721 43.6999 276.587 43.7167L275.464 43.8619C274.014 44.0492 272.871 45.2864 272.699 46.8582L272.565 48.0743C272.549 48.2195 272.355 48.2195 272.338 48.0743L272.204 46.8582C272.033 45.2885 270.89 44.0492 269.439 43.8619L268.317 43.7167C268.183 43.6999 268.183 43.4895 268.317 43.4726L269.439 43.3274C270.89 43.1402 272.033 41.903 272.204 40.3312L272.338 39.115Z" fill="white"/>
</g>
<rect x="1.10618" y="39.4443" width="117.014" height="117.014" rx="20.1868" stroke="white" stroke-opacity="0.13" stroke-width="0.876431"/>
<path d="M62.6342 95.1121L74.4601 81.3621H71.6578L61.3893 93.301L53.1879 81.3621H43.7285L56.1307 99.4159L43.7285 113.835H46.5311L57.3748 101.227L66.0361 113.835H75.4955L62.6335 95.1121H62.6342ZM58.7957 99.575L57.5391 97.7772L47.5408 83.4723H51.8454L59.9141 95.0168L61.1707 96.8146L71.6591 111.821H67.3546L58.7957 99.5757V99.575Z" fill="white"/>
<rect x="30.3155" y="139.249" width="56.4746" height="33.8848" rx="6.875" fill="white"/>
<rect x="58.6035" y="134.307" width="7.05933" height="7.05933" transform="rotate(45 58.6035 134.307)" fill="white"/>
<path d="M44.9464 162.38V149.879H45.7521V162.38H44.9464ZM45.356 161.266C44.519 161.266 43.7894 161.141 43.1672 160.89C42.5451 160.635 42.0594 160.252 41.7103 159.742C41.3657 159.227 41.1889 158.58 41.1799 157.802H43.4895C43.5119 158.119 43.5992 158.388 43.7513 158.607C43.908 158.822 44.1184 158.985 44.3824 159.097C44.651 159.209 44.9643 159.265 45.3224 159.265C45.6491 159.265 45.9266 159.22 46.1549 159.131C46.3877 159.041 46.5667 158.918 46.692 158.762C46.8173 158.605 46.88 158.424 46.88 158.218C46.88 158.03 46.8218 157.871 46.7054 157.741C46.5891 157.607 46.4123 157.49 46.175 157.392C45.9423 157.289 45.6424 157.197 45.2754 157.117L44.2213 156.875C43.3619 156.678 42.6838 156.358 42.187 155.915C41.6902 155.467 41.4418 154.861 41.4418 154.095C41.4418 153.478 41.6096 152.936 41.9453 152.471C42.281 152.005 42.742 151.643 43.3284 151.383C43.9192 151.123 44.5951 150.994 45.356 150.994C46.1303 150.994 46.8039 151.126 47.3768 151.39C47.9497 151.649 48.3929 152.016 48.7062 152.491C49.0195 152.961 49.1806 153.507 49.1896 154.129H46.8666C46.8397 153.771 46.6965 153.493 46.4369 153.297C46.1818 153.095 45.8192 152.994 45.3492 152.994C45.0359 152.994 44.7741 153.035 44.5637 153.115C44.3578 153.196 44.2012 153.308 44.0937 153.451C43.9908 153.594 43.9393 153.755 43.9393 153.934C43.9393 154.131 43.9975 154.299 44.1139 154.438C44.2303 154.577 44.3981 154.693 44.6174 154.787C44.8412 154.881 45.1031 154.962 45.403 155.029L46.2556 155.223C46.748 155.331 47.1844 155.474 47.5648 155.653C47.9453 155.832 48.2653 156.045 48.5249 156.291C48.789 156.537 48.9882 156.821 49.1224 157.144C49.2567 157.466 49.3239 157.826 49.3239 158.224C49.3239 158.86 49.165 159.406 48.8472 159.863C48.5339 160.315 48.0818 160.662 47.491 160.903C46.9001 161.145 46.1885 161.266 45.356 161.266ZM53.2869 162.38V149.879H54.0926V162.38H53.2869ZM53.6965 161.266C52.8595 161.266 52.1299 161.141 51.5077 160.89C50.8856 160.635 50.3999 160.252 50.0508 159.742C49.7062 159.227 49.5294 158.58 49.5204 157.802H51.83C51.8524 158.119 51.9397 158.388 52.0918 158.607C52.2485 158.822 52.4589 158.985 52.7229 159.097C52.9915 159.209 53.3048 159.265 53.6629 159.265C53.9896 159.265 54.2671 159.22 54.4954 159.131C54.7282 159.041 54.9072 158.918 55.0325 158.762C55.1578 158.605 55.2205 158.424 55.2205 158.218C55.2205 158.03 55.1623 157.871 55.0459 157.741C54.9296 157.607 54.7528 157.49 54.5155 157.392C54.2828 157.289 53.9829 157.197 53.6159 157.117L52.5618 156.875C51.7024 156.678 51.0243 156.358 50.5275 155.915C50.0307 155.467 49.7823 154.861 49.7823 154.095C49.7823 153.478 49.9501 152.936 50.2858 152.471C50.6215 152.005 51.0825 151.643 51.6689 151.383C52.2597 151.123 52.9356 150.994 53.6965 150.994C54.4708 150.994 55.1444 151.126 55.7173 151.39C56.2902 151.649 56.7334 152.016 57.0467 152.491C57.36 152.961 57.5211 153.507 57.5301 154.129H55.2071C55.1802 153.771 55.037 153.493 54.7774 153.297C54.5223 153.095 54.1597 152.994 53.6897 152.994C53.3764 152.994 53.1146 153.035 52.9042 153.115C52.6983 153.196 52.5417 153.308 52.4342 153.451C52.3313 153.594 52.2798 153.755 52.2798 153.934C52.2798 154.131 52.338 154.299 52.4544 154.438C52.5708 154.577 52.7386 154.693 52.9579 154.787C53.1817 154.881 53.4436 154.962 53.7435 155.029L54.5961 155.223C55.0885 155.331 55.5249 155.474 55.9053 155.653C56.2858 155.832 56.6058 156.045 56.8654 156.291C57.1295 156.537 57.3287 156.821 57.4629 157.144C57.5972 157.466 57.6644 157.826 57.6644 158.224C57.6644 158.86 57.5055 159.406 57.1877 159.863C56.8744 160.315 56.4223 160.662 55.8315 160.903C55.2406 161.145 54.529 161.266 53.6965 161.266ZM61.6274 162.38V149.879H62.4331V162.38H61.6274ZM62.037 161.266C61.2 161.266 60.4704 161.141 59.8482 160.89C59.2261 160.635 58.7404 160.252 58.3913 159.742C58.0467 159.227 57.8699 158.58 57.8609 157.802H60.1705C60.1929 158.119 60.2802 158.388 60.4323 158.607C60.589 158.822 60.7994 158.985 61.0634 159.097C61.332 159.209 61.6453 159.265 62.0034 159.265C62.3301 159.265 62.6076 159.22 62.8359 159.131C63.0687 159.041 63.2477 158.918 63.373 158.762C63.4983 158.605 63.561 158.424 63.561 158.218C63.561 158.03 63.5028 157.871 63.3864 157.741C63.2701 157.607 63.0933 157.49 62.856 157.392C62.6233 157.289 62.3234 157.197 61.9564 157.117L60.9023 156.875C60.0429 156.678 59.3648 156.358 58.868 155.915C58.3712 155.467 58.1228 154.861 58.1228 154.095C58.1228 153.478 58.2906 152.936 58.6263 152.471C58.962 152.005 59.423 151.643 60.0094 151.383C60.6002 151.123 61.276 150.994 62.037 150.994C62.8113 150.994 63.4849 151.126 64.0578 151.39C64.6307 151.649 65.0739 152.016 65.3872 152.491C65.7005 152.961 65.8616 153.507 65.8706 154.129H63.5476C63.5207 153.771 63.3775 153.493 63.1179 153.297C62.8628 153.095 62.5002 152.994 62.0302 152.994C61.7169 152.994 61.4551 153.035 61.2447 153.115C61.0388 153.196 60.8822 153.308 60.7747 153.451C60.6718 153.594 60.6203 153.755 60.6203 153.934C60.6203 154.131 60.6785 154.299 60.7949 154.438C60.9113 154.577 61.0791 154.693 61.2984 154.787C61.5222 154.881 61.7841 154.962 62.084 155.029L62.9366 155.223C63.429 155.331 63.8654 155.474 64.2458 155.653C64.6263 155.832 64.9463 156.045 65.2059 156.291C65.47 156.537 65.6692 156.821 65.8034 157.144C65.9377 157.466 66.0048 157.826 66.0048 158.224C66.0048 158.86 65.846 159.406 65.5282 159.863C65.2149 160.315 64.7628 160.662 64.172 160.903C63.5811 161.145 62.8695 161.266 62.037 161.266ZM69.9679 162.38V149.879H70.7736V162.38H69.9679ZM70.3775 161.266C69.5405 161.266 68.8109 161.141 68.1887 160.89C67.5666 160.635 67.0809 160.252 66.7318 159.742C66.3872 159.227 66.2104 158.58 66.2014 157.802H68.511C68.5334 158.119 68.6207 158.388 68.7728 158.607C68.9295 158.822 69.1399 158.985 69.4039 159.097C69.6725 159.209 69.9858 159.265 70.3439 159.265C70.6706 159.265 70.9481 159.22 71.1764 159.131C71.4092 159.041 71.5882 158.918 71.7135 158.762C71.8388 158.605 71.9015 158.424 71.9015 158.218C71.9015 158.03 71.8433 157.871 71.7269 157.741C71.6106 157.607 71.4338 157.49 71.1965 157.392C70.9638 157.289 70.6639 157.197 70.2969 157.117L69.2428 156.875C68.3834 156.678 67.7053 156.358 67.2085 155.915C66.7117 155.467 66.4633 154.861 66.4633 154.095C66.4633 153.478 66.6311 152.936 66.9668 152.471C67.3025 152.005 67.7635 151.643 68.3499 151.383C68.9407 151.123 69.6165 150.994 70.3775 150.994C71.1518 150.994 71.8254 151.126 72.3983 151.39C72.9712 151.649 73.4144 152.016 73.7277 152.491C74.041 152.961 74.2021 153.507 74.2111 154.129H71.8881C71.8612 153.771 71.718 153.493 71.4584 153.297C71.2033 153.095 70.8407 152.994 70.3707 152.994C70.0574 152.994 69.7956 153.035 69.5852 153.115C69.3793 153.196 69.2227 153.308 69.1152 153.451C69.0123 153.594 68.9608 153.755 68.9608 153.934C68.9608 154.131 69.019 154.299 69.1354 154.438C69.2518 154.577 69.4196 154.693 69.6389 154.787C69.8627 154.881 70.1246 154.962 70.4245 155.029L71.2771 155.223C71.7695 155.331 72.2059 155.474 72.5863 155.653C72.9668 155.832 73.2868 156.045 73.5464 156.291C73.8105 156.537 74.0097 156.821 74.1439 157.144C74.2782 157.466 74.3453 157.826 74.3453 158.224C74.3453 158.86 74.1865 159.406 73.8687 159.863C73.5554 160.315 73.1033 160.662 72.5125 160.903C71.9216 161.145 71.21 161.266 70.3775 161.266Z" fill="#030307"/>
<rect x="170.09" y="141.366" width="43.7678" height="33.8848" rx="6.875" fill="white"/>
<rect x="192.024" y="136.425" width="7.05933" height="7.05933" transform="rotate(45 192.024 136.425)" fill="white"/>
<path d="M191.074 164.498V151.997H191.88V164.498H191.074ZM191.483 163.384C190.646 163.384 189.917 163.258 189.295 163.008C188.673 162.753 188.187 162.37 187.838 161.86C187.493 161.345 187.316 160.698 187.307 159.919H189.617C189.639 160.237 189.727 160.506 189.879 160.725C190.035 160.94 190.246 161.103 190.51 161.215C190.778 161.327 191.092 161.383 191.45 161.383C191.777 161.383 192.054 161.338 192.282 161.249C192.515 161.159 192.694 161.036 192.819 160.88C192.945 160.723 193.007 160.542 193.007 160.336C193.007 160.148 192.949 159.989 192.833 159.859C192.717 159.725 192.54 159.608 192.302 159.51C192.07 159.407 191.77 159.315 191.403 159.235L190.349 158.993C189.489 158.796 188.811 158.476 188.314 158.033C187.818 157.585 187.569 156.979 187.569 156.213C187.569 155.596 187.737 155.054 188.073 154.589C188.408 154.123 188.869 153.761 189.456 153.501C190.047 153.241 190.722 153.112 191.483 153.112C192.258 153.112 192.931 153.244 193.504 153.508C194.077 153.767 194.52 154.134 194.834 154.609C195.147 155.079 195.308 155.625 195.317 156.247H192.994C192.967 155.889 192.824 155.611 192.564 155.414C192.309 155.213 191.947 155.112 191.477 155.112C191.163 155.112 190.902 155.153 190.691 155.233C190.485 155.314 190.329 155.426 190.221 155.569C190.118 155.712 190.067 155.873 190.067 156.052C190.067 156.249 190.125 156.417 190.241 156.556C190.358 156.695 190.526 156.811 190.745 156.905C190.969 156.999 191.231 157.079 191.53 157.147L192.383 157.341C192.875 157.449 193.312 157.592 193.692 157.771C194.073 157.95 194.393 158.163 194.652 158.409C194.916 158.655 195.116 158.939 195.25 159.261C195.384 159.584 195.451 159.944 195.451 160.342C195.451 160.978 195.292 161.524 194.975 161.981C194.661 162.433 194.209 162.78 193.618 163.021C193.028 163.263 192.316 163.384 191.483 163.384Z" fill="#030307"/>
<defs>
<filter id="filter0_bddi_162_3995" x="118.925" y="25.2561" width="145.391" height="164.916" filterUnits="userSpaceOnUse" color-interpolation-filters="sRGB">
<feFlood flood-opacity="0" result="BackgroundImageFix"/>
<feGaussianBlur in="BackgroundImageFix" stdDeviation="6.875"/>
<feComposite in2="SourceAlpha" operator="in" result="effect1_backgroundBlur_162_3995"/>
<feColorMatrix in="SourceAlpha" type="matrix" values="0 0 0 0 0 0 0 0 0 0 0 0 0 0 0 0 0 0 127 0" result="hardAlpha"/>
<feOffset dy="2.75"/>
<feGaussianBlur stdDeviation="1.375"/>
<feComposite in2="hardAlpha" operator="out"/>
<feColorMatrix type="matrix" values="0 0 0 0 0 0 0 0 0 0 0 0 0 0 0 0 0 0 0.25 0"/>
<feBlend mode="normal" in2="effect1_backgroundBlur_162_3995" result="effect2_dropShadow_162_3995"/>
<feColorMatrix in="SourceAlpha" type="matrix" values="0 0 0 0 0 0 0 0 0 0 0 0 0 0 0 0 0 0 127 0" result="hardAlpha"/>
<feMorphology radius="11.6875" operator="erode" in="SourceAlpha" result="effect3_dropShadow_162_3995"/>
<feOffset dy="20.625"/>
<feGaussianBlur stdDeviation="12.1687"/>
<feComposite in2="hardAlpha" operator="out"/>
<feColorMatrix type="matrix" values="0 0 0 0 0.168627 0 0 0 0 0.439216 0 0 0 0 1 0 0 0 1 0"/>
<feBlend mode="normal" in2="effect2_dropShadow_162_3995" result="effect3_dropShadow_162_3995"/>
<feBlend mode="normal" in="SourceGraphic" in2="effect3_dropShadow_162_3995" result="shape"/>
<feColorMatrix in="SourceAlpha" type="matrix" values="0 0 0 0 0 0 0 0 0 0 0 0 0 0 0 0 0 0 127 0" result="hardAlpha"/>
<feOffset/>
<feGaussianBlur stdDeviation="5.25859"/>
<feComposite in2="hardAlpha" operator="arithmetic" k2="-1" k3="1"/>
<feColorMatrix type="matrix" values="0 0 0 0 0.160784 0 0 0 0 0.392157 0 0 0 0 1 0 0 0 1 0"/>
<feBlend mode="normal" in2="shape" result="effect4_innerShadow_162_3995"/>
</filter>
<filter id="filter1_bi_162_3995" x="118.925" y="25.2561" width="145.391" height="145.391" filterUnits="userSpaceOnUse" color-interpolation-filters="sRGB">
<feFlood flood-opacity="0" result="BackgroundImageFix"/>
<feGaussianBlur in="BackgroundImageFix" stdDeviation="6.875"/>
<feComposite in2="SourceAlpha" operator="in" result="effect1_backgroundBlur_162_3995"/>
<feBlend mode="normal" in="SourceGraphic" in2="effect1_backgroundBlur_162_3995" result="shape"/>
<feColorMatrix in="SourceAlpha" type="matrix" values="0 0 0 0 0 0 0 0 0 0 0 0 0 0 0 0 0 0 127 0" result="hardAlpha"/>
<feOffset/>
<feGaussianBlur stdDeviation="5.25859"/>
<feComposite in2="hardAlpha" operator="arithmetic" k2="-1" k3="1"/>
<feColorMatrix type="matrix" values="0 0 0 0 0.160784 0 0 0 0 0.392157 0 0 0 0 1 0 0 0 1 0"/>
<feBlend mode="normal" in2="shape" result="effect2_innerShadow_162_3995"/>
</filter>
<filter id="filter2_i_162_3995" x="132.675" y="39.0061" width="117.891" height="117.891" filterUnits="userSpaceOnUse" color-interpolation-filters="sRGB">
<feFlood flood-opacity="0" result="BackgroundImageFix"/>
<feBlend mode="normal" in="SourceGraphic" in2="BackgroundImageFix" result="shape"/>
<feColorMatrix in="SourceAlpha" type="matrix" values="0 0 0 0 0 0 0 0 0 0 0 0 0 0 0 0 0 0 127 0" result="hardAlpha"/>
<feOffset/>
<feGaussianBlur stdDeviation="15.2499"/>
<feComposite in2="hardAlpha" operator="arithmetic" k2="-1" k3="1"/>
<feColorMatrix type="matrix" values="0 0 0 0 0.160784 0 0 0 0 0.392157 0 0 0 0 1 0 0 0 1 0"/>
<feBlend mode="normal" in2="shape" result="effect1_innerShadow_162_3995"/>
</filter>
<filter id="filter3_f_162_3995" x="238.902" y="0.5167" width="46.6239" height="47.3299" filterUnits="userSpaceOnUse" color-interpolation-filters="sRGB">
<feFlood flood-opacity="0" result="BackgroundImageFix"/>
<feBlend mode="normal" in="SourceGraphic" in2="BackgroundImageFix" result="shape"/>
<feGaussianBlur stdDeviation="7.59687" result="effect1_foregroundBlur_162_3995"/>
</filter>
<filter id="filter4_f_162_3995" x="110.423" y="140.291" width="38.8587" height="39.5647" filterUnits="userSpaceOnUse" color-interpolation-filters="sRGB">
<feFlood flood-opacity="0" result="BackgroundImageFix"/>
<feBlend mode="normal" in="SourceGraphic" in2="BackgroundImageFix" result="shape"/>
<feGaussianBlur stdDeviation="7.59687" result="effect1_foregroundBlur_162_3995"/>
</filter>
<filter id="filter5_f_162_3995" x="253.022" y="23.8124" width="38.8587" height="39.5647" filterUnits="userSpaceOnUse" color-interpolation-filters="sRGB">
<feFlood flood-opacity="0" result="BackgroundImageFix"/>
<feBlend mode="normal" in="SourceGraphic" in2="BackgroundImageFix" result="shape"/>
<feGaussianBlur stdDeviation="7.59687" result="effect1_foregroundBlur_162_3995"/>
</filter>
<radialGradient id="paint0_radial_162_3995" cx="0" cy="0" r="1" gradientUnits="userSpaceOnUse" gradientTransform="translate(113.777 15.158) rotate(49.5037) scale(186.389 80.7717)">
<stop stop-color="#0752FD"/>
<stop offset="1" stop-opacity="0"/>
</radialGradient>
<radialGradient id="paint1_radial_162_3995" cx="0" cy="0" r="1" gradientUnits="userSpaceOnUse" gradientTransform="translate(113.777 15.158) rotate(49.5037) scale(186.389 80.7717)">
<stop stop-color="#0752FD"/>
<stop offset="1" stop-opacity="0"/>
</radialGradient>
<radialGradient id="paint2_radial_162_3995" cx="0" cy="0" r="1" gradientUnits="userSpaceOnUse" gradientTransform="translate(113.777 15.158) rotate(51.0441) scale(217.567 331.35)">
<stop stop-color="#0752FD"/>
<stop offset="1" stop-opacity="0"/>
</radialGradient>
</defs>
</svg>
