<svg width="248" height="154" viewBox="0 0 248 154" fill="none" xmlns="http://www.w3.org/2000/svg">
<g style="mix-blend-mode:plus-lighter" opacity="0.4" filter="url(#filter0_i_162_4172)">
<rect x="24.8467" y="19.0652" width="176.483" height="134.833" rx="19.4464" fill="#0F2A83" fill-opacity="0.29"/>
<rect x="24.8467" y="19.0652" width="176.483" height="134.833" rx="19.4464" fill="url(#paint0_radial_162_4172)"/>
</g>
<g filter="url(#filter1_bi_162_4172)">
<rect x="14.2598" y="0.710938" width="197.661" height="143.304" rx="20.625" fill="#0F2A83" fill-opacity="0.29"/>
<rect x="14.2598" y="0.710938" width="197.661" height="143.304" rx="20.625" fill="url(#paint1_radial_162_4172)"/>
</g>
<g style="mix-blend-mode:plus-lighter" filter="url(#filter2_i_162_4172)">
<rect x="14.2598" y="0.710938" width="197.661" height="143.304" rx="20.625" fill="#0F2A83" fill-opacity="0.29"/>
<rect x="14.2598" y="0.710938" width="197.661" height="143.304" rx="20.625" fill="url(#paint2_radial_162_4172)"/>
</g>
<path d="M232.528 106.802C232.559 106.534 232.931 106.534 232.963 106.802L233.22 109.047C233.548 111.945 235.739 114.233 238.519 114.579L240.671 114.847C240.928 114.878 240.928 115.266 240.671 115.297L238.519 115.565C235.739 115.911 233.548 118.195 233.22 121.097L232.963 123.342C232.931 123.61 232.559 123.61 232.528 123.342L232.271 121.097C231.942 118.199 229.751 115.911 226.971 115.565L224.82 115.297C224.563 115.266 224.563 114.878 224.82 114.847L226.971 114.579C229.751 114.233 231.942 111.949 232.271 109.047L232.528 106.802Z" fill="white"/>
<path d="M243.955 127.148C243.967 127.048 244.113 127.048 244.125 127.148L244.226 127.99C244.354 129.077 245.211 129.935 246.299 130.064L247.141 130.165C247.242 130.177 247.242 130.322 247.141 130.334L246.299 130.434C245.211 130.564 244.354 131.421 244.226 132.509L244.125 133.351C244.113 133.451 243.967 133.451 243.955 133.351L243.854 132.509C243.726 131.422 242.868 130.564 241.781 130.434L240.939 130.334C240.838 130.322 240.838 130.177 240.939 130.165L241.781 130.064C242.868 129.935 243.726 129.078 243.854 127.99L243.955 127.148Z" fill="white"/>
<path d="M3.23123 48.0837C3.24361 47.9832 3.38908 47.9832 3.40146 48.0837L3.50205 48.9257C3.63049 50.0124 4.48783 50.8704 5.57574 51L6.4176 51.1005C6.51819 51.1122 6.51819 51.2578 6.4176 51.2695L5.57574 51.37C4.48783 51.4997 3.63049 52.3562 3.50205 53.4443L3.40146 54.2863C3.38908 54.3868 3.24361 54.3868 3.23123 54.2863L3.13064 53.4443C3.0022 52.3576 2.14486 51.4997 1.05695 51.37L0.215091 51.2695C0.114501 51.2578 0.114501 51.1122 0.215091 51.1005L1.05695 51C2.14486 50.8704 3.0022 50.0138 3.13064 48.9257L3.23123 48.0837Z" fill="white"/>
<g style="mix-blend-mode:overlay">
<path d="M152.768 27.7616C152.791 27.5596 153.066 27.5596 153.09 27.7616L153.28 29.4538C153.523 31.6377 155.145 33.3621 157.203 33.6226L158.796 33.8246C158.986 33.848 158.986 34.1408 158.796 34.1642L157.203 34.3662C155.145 34.6268 153.523 36.3482 153.28 38.5351L153.09 40.2272C153.066 40.4292 152.791 40.4292 152.768 40.2272L152.578 38.5351C152.335 36.3511 150.713 34.6268 148.655 34.3662L147.062 34.1642C146.872 34.1408 146.872 33.848 147.062 33.8246L148.655 33.6226C150.713 33.3621 152.335 31.6407 152.578 29.4538L152.768 27.7616Z" fill="white"/>
<path d="M181.684 45.0578C175.193 45.4999 169.809 40.3737 169.809 34.0091C169.809 27.6446 174.78 22.9283 180.89 22.9283C187 22.9283 192.384 28.3091 191.939 34.7996C191.558 40.2449 187.158 44.6772 181.681 45.0549L181.684 45.0578ZM153.473 45.0578C146.793 45.4706 141.283 39.9609 141.696 33.2831C142.044 27.7763 146.509 23.2796 152.018 22.9312C158.731 22.5184 164.241 28.0281 163.828 34.7381C163.48 40.2449 158.983 44.7094 153.476 45.0578H153.473ZM181.81 16.9794C176.238 16.6954 171.203 19.0697 167.909 22.9634C167.338 23.6279 166.293 23.6279 165.758 22.9634C162.561 19.1956 157.78 16.8535 152.461 16.9501C143.215 17.1082 135.712 24.7375 135.68 33.9799C135.68 36.925 136.409 39.7091 137.738 42.1156C138.244 43.0348 138.086 44.1737 137.357 44.9026L136.991 45.2686C135.662 46.5977 135.662 48.7202 136.991 50.0493C138.32 51.3784 140.443 51.3784 141.772 50.0493L142.235 49.5897C142.963 48.8607 144.038 48.7026 144.957 49.1769C147.299 50.3801 149.928 51.0447 152.715 51.0447C157.909 51.0447 162.561 48.7026 165.696 45.0315C166.267 44.3669 167.312 44.3669 167.848 45.0315C170.983 48.7026 175.635 51.0447 180.829 51.0447C190.487 51.0447 198.242 43.0348 197.861 33.3182C197.607 24.5823 190.548 17.4273 181.81 16.9823V16.9794Z" fill="#D9D9D9"/>
<path d="M181.127 40.116C181.947 40.116 182.761 39.955 183.519 39.6388C184.277 39.3255 184.968 38.863 185.548 38.2833C186.127 37.7036 186.59 37.0127 186.903 36.2545C187.216 35.4963 187.38 34.6824 187.38 33.8627C187.38 33.043 187.219 32.2291 186.903 31.4708C186.59 30.7126 186.127 30.0217 185.548 29.442C184.968 28.8624 184.277 28.3998 183.519 28.0866C182.761 27.7733 181.947 27.6094 181.127 27.6094V40.113V40.116Z" fill="white"/>
</g>
<g style="mix-blend-mode:overlay">
<path d="M181.684 45.0578C175.193 45.4999 169.809 40.3737 169.809 34.0091C169.809 27.6446 174.78 22.9283 180.89 22.9283C187 22.9283 192.384 28.3091 191.939 34.7996C191.558 40.2449 187.158 44.6772 181.681 45.0549L181.684 45.0578ZM153.473 45.0578C146.793 45.4706 141.283 39.9609 141.696 33.2831C142.044 27.7763 146.509 23.2796 152.018 22.9312C158.731 22.5184 164.241 28.0281 163.828 34.7381C163.48 40.2449 158.983 44.7094 153.476 45.0578H153.473ZM181.81 16.9794C176.238 16.6954 171.203 19.0697 167.909 22.9634C167.338 23.6279 166.293 23.6279 165.758 22.9634C162.561 19.1956 157.78 16.8535 152.461 16.9501C143.215 17.1082 135.712 24.7375 135.68 33.9799C135.68 36.925 136.409 39.7091 137.738 42.1156C138.244 43.0348 138.086 44.1737 137.357 44.9026L136.991 45.2686C135.662 46.5977 135.662 48.7202 136.991 50.0493C138.32 51.3784 140.443 51.3784 141.772 50.0493L142.235 49.5897C142.963 48.8607 144.038 48.7026 144.957 49.1769C147.299 50.3801 149.928 51.0447 152.715 51.0447C157.909 51.0447 162.561 48.7026 165.696 45.0315C166.267 44.3669 167.312 44.3669 167.848 45.0315C170.983 48.7026 175.635 51.0447 180.829 51.0447C190.487 51.0447 198.242 43.0348 197.861 33.3182C197.607 24.5823 190.548 17.4273 181.81 16.9823V16.9794Z" fill="#D9D9D9"/>
</g>
<path d="M152.767 27.7616C152.791 27.5596 153.066 27.5596 153.089 27.7616L153.279 29.4538C153.522 31.6377 155.144 33.3621 157.202 33.6226L158.795 33.8246C158.985 33.848 158.985 34.1408 158.795 34.1642L157.202 34.3662C155.144 34.6268 153.522 36.3482 153.279 38.5351L153.089 40.2272C153.066 40.4292 152.791 40.4292 152.767 40.2272L152.577 38.5351C152.334 36.3511 150.712 34.6268 148.654 34.3662L147.061 34.1642C146.871 34.1408 146.871 33.848 147.061 33.8246L148.654 33.6226C150.712 33.3621 152.334 31.6407 152.577 29.4538L152.767 27.7616Z" fill="white"/>
<path d="M181.126 40.116C181.946 40.116 182.76 39.955 183.518 39.6388C184.276 39.3255 184.967 38.863 185.547 38.2833C186.127 37.7036 186.589 37.0127 186.902 36.2545C187.216 35.4963 187.38 34.6824 187.38 33.8627C187.38 33.043 187.219 32.2291 186.902 31.4708C186.589 30.7126 186.127 30.0217 185.547 29.442C184.967 28.8624 184.276 28.3998 183.518 28.0866C182.76 27.7733 181.946 27.6094 181.126 27.6094V40.113V40.116Z" fill="white"/>
<path d="M31.9072 116.894V111.584L50.3611 103.82V109.639L38.1987 114.195L38.374 113.897V114.581L38.1987 114.3L50.3611 118.839V124.623L31.9072 116.894Z" fill="white"/>
<path d="M68.5416 97.4238L60.1296 128.689H54.8019L63.214 97.4238H68.5416Z" fill="white"/>
<path d="M91.4188 116.894L72.9649 124.623V118.839L85.1623 114.3L84.9696 114.581V113.897L85.1623 114.195L72.9649 109.639V103.82L91.4188 111.584V116.894Z" fill="white"/>
<g style="mix-blend-mode:overlay">
<circle cx="31.9066" cy="16.9474" r="3.52966" fill="white"/>
<circle cx="43.2017" cy="16.9474" r="3.52966" fill="white"/>
<circle cx="54.4969" cy="16.9474" r="3.52966" fill="white"/>
</g>
<defs>
<filter id="filter0_i_162_4172" x="24.8467" y="19.0652" width="176.483" height="134.833" filterUnits="userSpaceOnUse" color-interpolation-filters="sRGB">
<feFlood flood-opacity="0" result="BackgroundImageFix"/>
<feBlend mode="normal" in="SourceGraphic" in2="BackgroundImageFix" result="shape"/>
<feColorMatrix in="SourceAlpha" type="matrix" values="0 0 0 0 0 0 0 0 0 0 0 0 0 0 0 0 0 0 127 0" result="hardAlpha"/>
<feOffset/>
<feGaussianBlur stdDeviation="14.3785"/>
<feComposite in2="hardAlpha" operator="arithmetic" k2="-1" k3="1"/>
<feColorMatrix type="matrix" values="0 0 0 0 0.160784 0 0 0 0 0.392157 0 0 0 0 1 0 0 0 1 0"/>
<feBlend mode="normal" in2="shape" result="effect1_innerShadow_162_4172"/>
</filter>
<filter id="filter1_bi_162_4172" x="5.23252" y="-8.3163" width="215.716" height="161.359" filterUnits="userSpaceOnUse" color-interpolation-filters="sRGB">
<feFlood flood-opacity="0" result="BackgroundImageFix"/>
<feGaussianBlur in="BackgroundImageFix" stdDeviation="4.51362"/>
<feComposite in2="SourceAlpha" operator="in" result="effect1_backgroundBlur_162_4172"/>
<feBlend mode="normal" in="SourceGraphic" in2="effect1_backgroundBlur_162_4172" result="shape"/>
<feColorMatrix in="SourceAlpha" type="matrix" values="0 0 0 0 0 0 0 0 0 0 0 0 0 0 0 0 0 0 127 0" result="hardAlpha"/>
<feOffset/>
<feGaussianBlur stdDeviation="15.2499"/>
<feComposite in2="hardAlpha" operator="arithmetic" k2="-1" k3="1"/>
<feColorMatrix type="matrix" values="0 0 0 0 0.160784 0 0 0 0 0.392157 0 0 0 0 1 0 0 0 1 0"/>
<feBlend mode="normal" in2="shape" result="effect2_innerShadow_162_4172"/>
</filter>
<filter id="filter2_i_162_4172" x="14.2598" y="0.710938" width="197.661" height="143.304" filterUnits="userSpaceOnUse" color-interpolation-filters="sRGB">
<feFlood flood-opacity="0" result="BackgroundImageFix"/>
<feBlend mode="normal" in="SourceGraphic" in2="BackgroundImageFix" result="shape"/>
<feColorMatrix in="SourceAlpha" type="matrix" values="0 0 0 0 0 0 0 0 0 0 0 0 0 0 0 0 0 0 127 0" result="hardAlpha"/>
<feOffset/>
<feGaussianBlur stdDeviation="15.2499"/>
<feComposite in2="hardAlpha" operator="arithmetic" k2="-1" k3="1"/>
<feColorMatrix type="matrix" values="0 0 0 0 0.160784 0 0 0 0 0.392157 0 0 0 0 1 0 0 0 1 0"/>
<feBlend mode="normal" in2="shape" result="effect1_innerShadow_162_4172"/>
</filter>
<radialGradient id="paint0_radial_162_4172" cx="0" cy="0" r="1" gradientUnits="userSpaceOnUse" gradientTransform="translate(-3.44453 -8.21023) rotate(43.3787) scale(281.736 438.105)">
<stop stop-color="#0752FD"/>
<stop offset="1" stop-opacity="0"/>
</radialGradient>
<radialGradient id="paint1_radial_162_4172" cx="0" cy="0" r="1" gradientUnits="userSpaceOnUse" gradientTransform="translate(-17.4264 -28.2781) rotate(41.8829) scale(308.051 476.956)">
<stop stop-color="#0752FD"/>
<stop offset="1" stop-opacity="0"/>
</radialGradient>
<radialGradient id="paint2_radial_162_4172" cx="0" cy="0" r="1" gradientUnits="userSpaceOnUse" gradientTransform="translate(-17.4264 -28.2781) rotate(41.8829) scale(308.051 476.956)">
<stop stop-color="#0752FD"/>
<stop offset="1" stop-opacity="0"/>
</radialGradient>
</defs>
</svg>
