<svg width="331" height="246" viewBox="0 0 331 246" fill="none" xmlns="http://www.w3.org/2000/svg">
<path opacity="0.3" d="M35.843 15.7968C35.8599 15.6511 36.0585 15.6511 36.0754 15.7968L36.2127 17.0178C36.388 18.5936 37.5583 19.8378 39.0433 20.0258L40.1924 20.1715C40.3297 20.1884 40.3297 20.3997 40.1924 20.4166L39.0433 20.5623C37.5583 20.7503 36.388 21.9924 36.2127 23.5704L36.0754 24.7913C36.0585 24.9371 35.8599 24.9371 35.843 24.7913L35.7057 23.5704C35.5304 21.9945 34.3602 20.7503 32.8752 20.5623L31.726 20.4166C31.5887 20.3997 31.5887 20.1884 31.726 20.1715L32.8752 20.0258C34.3602 19.8378 35.5304 18.5957 35.7057 17.0178L35.843 15.7968Z" fill="white"/>
<path d="M325.97 29.5468C325.987 29.4011 326.185 29.4011 326.202 29.5468L326.34 30.7678C326.515 32.3436 327.685 33.5878 329.17 33.7758L330.319 33.9215C330.457 33.9384 330.457 34.1497 330.319 34.1666L329.17 34.3123C327.685 34.5003 326.515 35.7424 326.34 37.3204L326.202 38.5413C326.185 38.6871 325.987 38.6871 325.97 38.5413L325.833 37.3204C325.657 35.7445 324.487 34.5003 323.002 34.3123L321.853 34.1666C321.716 34.1497 321.716 33.9384 321.853 33.9215L323.002 33.7758C324.487 33.5878 325.657 32.3457 325.833 30.7678L325.97 29.5468Z" fill="white"/>
<path opacity="0.3" d="M4.22 180.109C4.2369 179.964 4.43546 179.964 4.45236 180.109L4.58966 181.33C4.76499 182.906 5.93525 184.15 7.42025 184.338L8.56938 184.484C8.70668 184.501 8.70668 184.712 8.56938 184.729L7.42025 184.875C5.93525 185.063 4.76499 186.305 4.58966 187.883L4.45236 189.104C4.43546 189.25 4.2369 189.25 4.22 189.104L4.08269 187.883C3.90737 186.307 2.73711 185.063 1.25211 184.875L0.102978 184.729C-0.0343261 184.712 -0.0343261 184.501 0.102978 184.484L1.25211 184.338C2.73711 184.15 3.90737 182.908 4.08269 181.33L4.22 180.109Z" fill="white"/>
<path d="M309.026 3.51352C309.057 3.24549 309.429 3.24549 309.461 3.51352L309.718 5.75879C310.046 8.65665 312.237 10.9446 315.017 11.2904L317.169 11.5584C317.426 11.5895 317.426 11.9779 317.169 12.009L315.017 12.277C312.237 12.6228 310.046 14.9069 309.718 17.8086L309.461 20.0539C309.429 20.3219 309.057 20.3219 309.026 20.0539L308.769 17.8086C308.44 14.9108 306.249 12.6228 303.469 12.277L301.318 12.009C301.061 11.9779 301.061 11.5895 301.318 11.5584L303.469 11.2904C306.249 10.9446 308.44 8.66054 308.769 5.75879L309.026 3.51352Z" fill="white"/>
<path d="M287.03 197.382C290.152 198.898 293.926 197.602 295.3 194.415C303.853 174.57 307.67 152.974 306.407 131.343C305.023 107.619 297.574 84.6463 284.773 64.6234C271.972 44.6004 254.248 28.1968 233.296 16.9815C212.344 5.76625 188.864 0.114516 165.104 0.566923C141.343 1.01933 118.096 7.56074 97.5856 19.5655C77.0756 31.5702 59.9887 48.6366 47.9595 69.1323C35.9303 89.628 29.3612 112.867 28.8804 136.628C28.442 158.291 33.0781 179.726 42.3809 199.23C43.8749 202.363 47.6955 203.515 50.7572 201.88L60.4649 196.699C63.5266 195.065 64.667 191.265 63.202 188.118C55.7817 172.183 52.0906 154.735 52.4473 137.104C52.8465 117.377 58.3008 98.0811 68.2886 81.0637C78.2763 64.0463 92.4634 49.8761 109.493 39.9087C126.522 29.9413 145.824 24.51 165.552 24.1344C185.281 23.7588 204.775 28.4514 222.172 37.7633C239.568 47.0752 254.284 60.695 264.913 77.3199C275.541 93.9448 281.726 113.019 282.876 132.717C283.903 150.321 280.879 167.897 274.071 184.103C272.727 187.303 274.011 191.057 277.133 192.574L287.03 197.382Z" fill="white" fill-opacity="0.03"/>
<path d="M294.984 194.279C293.692 197.277 290.135 198.508 287.181 197.073L277.283 192.264C274.336 190.833 273.11 187.279 274.388 184.237C281.216 167.982 284.25 150.353 283.219 132.697C282.066 112.94 275.862 93.8092 265.202 77.1348C254.542 60.4603 239.782 46.7999 222.334 37.4602C204.886 28.1205 185.333 23.414 165.546 23.7907C145.759 24.1675 126.399 29.6149 109.319 39.6121C92.239 49.6092 78.0096 63.8215 67.9921 80.8897C57.9746 97.9578 52.504 117.311 52.1036 137.097C51.7458 154.78 55.448 172.281 62.8904 188.264C64.2834 191.255 63.1933 194.853 60.303 196.396L50.5954 201.577C47.6973 203.124 44.0964 202.029 42.6912 199.083C33.4114 179.626 28.7868 158.244 29.2241 136.635C29.7037 112.933 36.2566 89.7513 48.256 69.3063C60.2554 48.8613 77.3 31.8371 97.7593 19.8621C118.219 7.88712 141.408 1.3619 165.11 0.910611C188.812 0.459323 212.233 6.09707 233.134 17.2846C254.034 28.4721 271.714 44.8351 284.483 64.8085C297.252 84.7819 304.683 107.698 306.064 131.363C307.324 152.94 303.517 174.483 294.984 194.279Z" stroke="white" stroke-opacity="0.13" stroke-width="0.6875"/>
<path opacity="0.2" d="M245.438 164.188L169.444 143.563L91.4375 164.187" stroke="url(#paint0_linear_162_4088)" stroke-width="0.6875"/>
<path opacity="0.2" d="M239.936 94.75L169.517 143.562L93.8418 94.75" stroke="url(#paint1_linear_162_4088)" stroke-width="0.6875"/>
<path d="M264.938 57.5166C269.915 53.3216 270.582 45.8449 265.98 41.2413C244.689 19.9411 216.958 6.05746 186.919 1.87127C152.974 -2.8592 118.479 5.12748 90.0674 24.2953C61.6558 43.4632 41.3341 72.4587 33.0106 105.705C25.1969 136.916 28.4746 169.804 42.1657 198.777C43.6485 201.915 47.4649 203.08 50.5325 201.457L60.2588 196.311C63.3264 194.688 64.4804 190.891 63.0267 187.74C52.0393 163.921 49.4757 136.997 55.8766 111.43C62.7876 83.8256 79.6605 59.7508 103.25 43.8359C126.84 27.921 155.481 21.2897 183.666 25.2174C207.941 28.6004 230.401 39.6113 247.883 56.5037C252.564 61.0268 259.961 61.7117 264.938 57.5166Z" fill="white" fill-opacity="0.01"/>
<path d="M264.938 57.5166C269.915 53.3216 270.582 45.8449 265.98 41.2413C244.689 19.9411 216.958 6.05746 186.919 1.87127C152.974 -2.8592 118.479 5.12748 90.0674 24.2953C61.6558 43.4632 41.3341 72.4587 33.0106 105.705C25.1969 136.916 28.4746 169.804 42.1657 198.777C43.6485 201.915 47.4649 203.08 50.5325 201.457L60.2588 196.311C63.3264 194.688 64.4804 190.891 63.0267 187.74C52.0393 163.921 49.4757 136.997 55.8766 111.43C62.7876 83.8256 79.6605 59.7508 103.25 43.8359C126.84 27.921 155.481 21.2897 183.666 25.2174C207.941 28.6004 230.401 39.6113 247.883 56.5037C252.564 61.0268 259.961 61.7117 264.938 57.5166Z" fill="url(#paint2_radial_162_4088)"/>
<path d="M264.938 57.5166C269.915 53.3216 270.582 45.8449 265.98 41.2413C244.689 19.9411 216.958 6.05746 186.919 1.87127C152.974 -2.8592 118.479 5.12748 90.0674 24.2953C61.6558 43.4632 41.3341 72.4587 33.0106 105.705C25.1969 136.916 28.4746 169.804 42.1657 198.777C43.6485 201.915 47.4649 203.08 50.5325 201.457L60.2588 196.311C63.3264 194.688 64.4804 190.891 63.0267 187.74C52.0393 163.921 49.4757 136.997 55.8766 111.43C62.7876 83.8256 79.6605 59.7508 103.25 43.8359C126.84 27.921 155.481 21.2897 183.666 25.2174C207.941 28.6004 230.401 39.6113 247.883 56.5037C252.564 61.0268 259.961 61.7117 264.938 57.5166Z" fill="url(#paint3_radial_162_4088)"/>
<g filter="url(#filter0_d_162_4088)">
<g filter="url(#filter1_bi_162_4088)">
<rect x="109.311" y="79.625" width="117.891" height="117.891" rx="58.9454" fill="#0F2A83" fill-opacity="0.29"/>
<rect x="109.311" y="79.625" width="117.891" height="117.891" rx="58.9454" fill="url(#paint4_radial_162_4088)"/>
<rect x="109.749" y="80.0632" width="117.014" height="117.014" rx="58.5072" stroke="white" stroke-opacity="0.13" stroke-width="0.876431"/>
</g>
<g style="mix-blend-mode:plus-lighter" filter="url(#filter2_i_162_4088)">
<rect x="109.311" y="79.625" width="117.891" height="117.891" rx="58.9454" fill="#0F2A83" fill-opacity="0.29"/>
<rect x="109.311" y="79.625" width="117.891" height="117.891" rx="58.9454" fill="url(#paint5_radial_162_4088)"/>
</g>
<g style="mix-blend-mode:overlay">
<path d="M154.635 132.089C154.658 131.887 154.934 131.887 154.957 132.089L155.147 133.782C155.39 135.966 157.012 137.69 159.07 137.951L160.663 138.153C160.853 138.176 160.853 138.469 160.663 138.492L159.07 138.694C157.012 138.955 155.39 140.676 155.147 142.863L154.957 144.555C154.934 144.757 154.658 144.757 154.635 144.555L154.445 142.863C154.202 140.679 152.58 138.955 150.522 138.694L148.929 138.492C148.739 138.469 148.739 138.176 148.929 138.153L150.522 137.951C152.58 137.69 154.202 135.969 154.445 133.782L154.635 132.089Z" fill="white"/>
<path d="M183.552 149.386C177.061 149.828 171.678 144.702 171.678 138.337C171.678 131.972 176.649 127.256 182.759 127.256C188.868 127.256 194.252 132.637 193.807 139.127C193.427 144.573 189.026 149.005 183.549 149.383L183.552 149.386ZM155.342 149.386C148.661 149.798 143.151 144.289 143.564 137.611C143.913 132.104 148.377 127.607 153.887 127.259C160.6 126.846 166.109 132.356 165.697 139.066C165.348 144.573 160.851 149.037 155.345 149.386H155.342ZM183.678 121.307C178.107 121.023 173.071 123.398 169.778 127.291C169.207 127.956 168.162 127.956 167.626 127.291C164.429 123.523 159.648 121.181 154.329 121.278C145.084 121.436 137.58 129.065 137.548 138.308C137.548 141.253 138.277 144.037 139.606 146.443C140.113 147.363 139.954 148.502 139.225 149.231L138.86 149.596C137.53 150.926 137.53 153.048 138.86 154.377C140.189 155.706 142.311 155.706 143.64 154.377L144.103 153.918C144.832 153.189 145.906 153.031 146.825 153.505C149.168 154.708 151.796 155.373 154.584 155.373C159.777 155.373 164.429 153.031 167.564 149.359C168.135 148.695 169.18 148.695 169.716 149.359C172.852 153.031 177.504 155.373 182.697 155.373C192.355 155.373 200.11 147.363 199.73 137.646C199.475 128.91 192.417 121.755 183.678 121.31V121.307Z" fill="#D9D9D9"/>
<path d="M182.996 144.444C183.816 144.444 184.63 144.283 185.388 143.967C186.146 143.653 186.837 143.191 187.417 142.611C187.996 142.032 188.459 141.341 188.772 140.582C189.085 139.824 189.249 139.01 189.249 138.191C189.249 137.371 189.088 136.557 188.772 135.799C188.459 135.04 187.996 134.35 187.417 133.77C186.837 133.19 186.146 132.728 185.388 132.414C184.63 132.101 183.816 131.937 182.996 131.937V144.441V144.444Z" fill="white"/>
</g>
<g style="mix-blend-mode:overlay">
<path d="M183.552 149.386C177.061 149.828 171.678 144.702 171.678 138.337C171.678 131.972 176.649 127.256 182.759 127.256C188.868 127.256 194.252 132.637 193.807 139.127C193.427 144.573 189.026 149.005 183.549 149.383L183.552 149.386ZM155.342 149.386C148.661 149.798 143.151 144.289 143.564 137.611C143.913 132.104 148.377 127.607 153.887 127.259C160.6 126.846 166.109 132.356 165.697 139.066C165.348 144.573 160.851 149.037 155.345 149.386H155.342ZM183.678 121.307C178.107 121.023 173.071 123.398 169.778 127.291C169.207 127.956 168.162 127.956 167.626 127.291C164.429 123.523 159.648 121.181 154.329 121.278C145.084 121.436 137.58 129.065 137.548 138.308C137.548 141.253 138.277 144.037 139.606 146.443C140.113 147.363 139.954 148.502 139.225 149.231L138.86 149.596C137.53 150.926 137.53 153.048 138.86 154.377C140.189 155.706 142.311 155.706 143.64 154.377L144.103 153.918C144.832 153.189 145.906 153.031 146.825 153.505C149.168 154.708 151.796 155.373 154.584 155.373C159.777 155.373 164.429 153.031 167.564 149.359C168.135 148.695 169.18 148.695 169.716 149.359C172.852 153.031 177.504 155.373 182.697 155.373C192.355 155.373 200.11 147.363 199.73 137.646C199.475 128.91 192.417 121.755 183.678 121.31V121.307Z" fill="#D9D9D9"/>
</g>
<path d="M154.637 132.089C154.661 131.887 154.936 131.887 154.959 132.089L155.149 133.781C155.392 135.965 157.014 137.69 159.072 137.95L160.665 138.152C160.855 138.176 160.855 138.468 160.665 138.492L159.072 138.694C157.014 138.954 155.392 140.676 155.149 142.863L154.959 144.555C154.936 144.757 154.661 144.757 154.637 144.555L154.447 142.863C154.204 140.679 152.582 138.954 150.524 138.694L148.931 138.492C148.741 138.468 148.741 138.176 148.931 138.152L150.524 137.95C152.582 137.69 154.204 135.968 154.447 133.781L154.637 132.089Z" fill="white"/>
<path d="M182.996 144.444C183.816 144.444 184.63 144.283 185.388 143.967C186.146 143.653 186.837 143.191 187.417 142.611C187.997 142.032 188.459 141.341 188.772 140.582C189.086 139.824 189.25 139.01 189.25 138.191C189.25 137.371 189.089 136.557 188.772 135.799C188.459 135.04 187.997 134.35 187.417 133.77C186.837 133.19 186.146 132.728 185.388 132.414C184.63 132.101 183.816 131.937 182.996 131.937V144.441V144.444Z" fill="white"/>
</g>
<path opacity="0.1" d="M260.146 184.195C267.657 168.565 271.049 151.274 269.999 133.965C268.949 116.655 263.492 99.901 254.147 85.293C244.802 70.685 231.878 58.7078 216.603 50.4985C201.328 42.2891 184.208 38.1201 166.869 38.3871C149.529 38.6541 132.546 43.3482 117.531 52.024C102.516 60.6998 89.9669 73.0692 81.076 87.958C72.1851 102.847 67.247 119.761 66.7305 137.095C66.214 154.428 70.1363 171.606 78.125 186.998L78.7015 186.699C70.7638 171.406 66.8666 154.337 67.3798 137.114C67.893 119.891 72.7995 103.085 81.6337 88.291C90.4678 73.4972 102.936 61.2068 117.856 52.5864C132.775 43.9661 149.65 39.3018 166.879 39.0366C184.107 38.7713 201.118 42.9137 216.296 51.0706C231.473 59.2276 244.315 71.1283 253.6 85.643C262.885 100.158 268.307 116.805 269.35 134.004C270.394 151.203 267.024 168.383 259.561 183.914L260.146 184.195Z" fill="white"/>
<defs>
<filter id="filter0_d_162_4088" x="61.048" y="31.3625" width="214.416" height="214.416" filterUnits="userSpaceOnUse" color-interpolation-filters="sRGB">
<feFlood flood-opacity="0" result="BackgroundImageFix"/>
<feColorMatrix in="SourceAlpha" type="matrix" values="0 0 0 0 0 0 0 0 0 0 0 0 0 0 0 0 0 0 127 0" result="hardAlpha"/>
<feOffset/>
<feGaussianBlur stdDeviation="24.1312"/>
<feComposite in2="hardAlpha" operator="out"/>
<feColorMatrix type="matrix" values="0 0 0 0 0.00784314 0 0 0 0 0.0117647 0 0 0 0 0.419608 0 0 0 1 0"/>
<feBlend mode="normal" in2="BackgroundImageFix" result="effect1_dropShadow_162_4088"/>
<feBlend mode="normal" in="SourceGraphic" in2="effect1_dropShadow_162_4088" result="shape"/>
</filter>
<filter id="filter1_bi_162_4088" x="89.3105" y="59.625" width="157.891" height="157.891" filterUnits="userSpaceOnUse" color-interpolation-filters="sRGB">
<feFlood flood-opacity="0" result="BackgroundImageFix"/>
<feGaussianBlur in="BackgroundImageFix" stdDeviation="10"/>
<feComposite in2="SourceAlpha" operator="in" result="effect1_backgroundBlur_162_4088"/>
<feBlend mode="normal" in="SourceGraphic" in2="effect1_backgroundBlur_162_4088" result="shape"/>
<feColorMatrix in="SourceAlpha" type="matrix" values="0 0 0 0 0 0 0 0 0 0 0 0 0 0 0 0 0 0 127 0" result="hardAlpha"/>
<feOffset/>
<feGaussianBlur stdDeviation="5.25859"/>
<feComposite in2="hardAlpha" operator="arithmetic" k2="-1" k3="1"/>
<feColorMatrix type="matrix" values="0 0 0 0 0.160784 0 0 0 0 0.392157 0 0 0 0 1 0 0 0 1 0"/>
<feBlend mode="normal" in2="shape" result="effect2_innerShadow_162_4088"/>
</filter>
<filter id="filter2_i_162_4088" x="109.311" y="79.625" width="117.891" height="117.891" filterUnits="userSpaceOnUse" color-interpolation-filters="sRGB">
<feFlood flood-opacity="0" result="BackgroundImageFix"/>
<feBlend mode="normal" in="SourceGraphic" in2="BackgroundImageFix" result="shape"/>
<feColorMatrix in="SourceAlpha" type="matrix" values="0 0 0 0 0 0 0 0 0 0 0 0 0 0 0 0 0 0 127 0" result="hardAlpha"/>
<feOffset/>
<feGaussianBlur stdDeviation="15.2499"/>
<feComposite in2="hardAlpha" operator="arithmetic" k2="-1" k3="1"/>
<feColorMatrix type="matrix" values="0 0 0 0 0.160784 0 0 0 0 0.392157 0 0 0 0 1 0 0 0 1 0"/>
<feBlend mode="normal" in2="shape" result="effect1_innerShadow_162_4088"/>
</filter>
<linearGradient id="paint0_linear_162_4088" x1="416.045" y1="142.556" x2="-77.1573" y2="142.556" gradientUnits="userSpaceOnUse">
<stop offset="0.00151002" stop-color="#010103" stop-opacity="0"/>
<stop offset="0.388377" stop-color="white"/>
<stop offset="0.612357" stop-color="white"/>
<stop offset="1" stop-color="#010103" stop-opacity="0"/>
</linearGradient>
<linearGradient id="paint1_linear_162_4088" x1="417.18" y1="142.552" x2="-78.1461" y2="142.552" gradientUnits="userSpaceOnUse">
<stop offset="0.00151002" stop-color="#010103" stop-opacity="0"/>
<stop offset="0.388377" stop-color="white"/>
<stop offset="0.612357" stop-color="white"/>
<stop offset="1" stop-color="#010103" stop-opacity="0"/>
</linearGradient>
<radialGradient id="paint2_radial_162_4088" cx="0" cy="0" r="1" gradientUnits="userSpaceOnUse" gradientTransform="translate(210.029 36.9999) rotate(152.041) scale(214.824 214.824)">
<stop offset="0.350198" stop-color="#105BFF"/>
<stop offset="1" stop-color="#105BFF" stop-opacity="0.27"/>
</radialGradient>
<radialGradient id="paint3_radial_162_4088" cx="0" cy="0" r="1" gradientUnits="userSpaceOnUse" gradientTransform="translate(353.772 105.973) rotate(168.464) scale(379.312 517.864)">
<stop offset="0.350198" stop-color="#3DD9FF"/>
<stop offset="0.712465" stop-color="#3DD9FF" stop-opacity="0"/>
</radialGradient>
<radialGradient id="paint4_radial_162_4088" cx="0" cy="0" r="1" gradientUnits="userSpaceOnUse" gradientTransform="translate(90.412 55.7769) rotate(49.5037) scale(186.389 80.7717)">
<stop stop-color="#0752FD"/>
<stop offset="1" stop-opacity="0"/>
</radialGradient>
<radialGradient id="paint5_radial_162_4088" cx="0" cy="0" r="1" gradientUnits="userSpaceOnUse" gradientTransform="translate(90.412 55.7769) rotate(51.0441) scale(217.567 331.35)">
<stop stop-color="#0752FD"/>
<stop offset="1" stop-opacity="0"/>
</radialGradient>
</defs>
</svg>
